<?xml version="1.0" encoding="UTF-8" standalone="no"?>
<!-- Created with Inkscape (http://www.inkscape.org/) -->

<svg
   xmlns:dc="http://purl.org/dc/elements/1.1/"
   xmlns:cc="http://creativecommons.org/ns#"
   xmlns:rdf="http://www.w3.org/1999/02/22-rdf-syntax-ns#"
   xmlns:svg="http://www.w3.org/2000/svg"
   xmlns="http://www.w3.org/2000/svg"
   xmlns:sodipodi="http://sodipodi.sourceforge.net/DTD/sodipodi-0.dtd"
   xmlns:inkscape="http://www.inkscape.org/namespaces/inkscape"
   id="svg2"
   version="1.1"
   inkscape:version="0.48.0 r9654"
   width="75"
   height="75"
   sodipodi:docname="when.png"
   inkscape:export-filename="/home/tatica/Documentos/tatica/Comunidades/fedora/Eventos/FUDcon-Emea-2011/website-FUDcon/images/when.png"
   inkscape:export-xdpi="90"
   inkscape:export-ydpi="90">
  <metadata
     id="metadata8">
    <rdf:RDF>
      <cc:Work
         rdf:about="">
        <dc:format>image/svg+xml</dc:format>
        <dc:type
           rdf:resource="http://purl.org/dc/dcmitype/StillImage" />
        <dc:title></dc:title>
      </cc:Work>
    </rdf:RDF>
  </metadata>
  <defs
     id="defs6" />
  <sodipodi:namedview
     pagecolor="#ffffff"
     bordercolor="#666666"
     borderopacity="1"
     objecttolerance="10"
     gridtolerance="10"
     guidetolerance="10"
     inkscape:pageopacity="0"
     inkscape:pageshadow="2"
     inkscape:window-width="1440"
     inkscape:window-height="852"
     id="namedview4"
     showgrid="false"
     borderlayer="true"
     inkscape:showpageshadow="false"
     inkscape:zoom="0.99532966"
     inkscape:cx="58.299228"
     inkscape:cy="32.057915"
     inkscape:window-x="0"
     inkscape:window-y="0"
     inkscape:window-maximized="1"
     inkscape:current-layer="svg2" />
  <path
     sodipodi:type="arc"
     style="color:#000000;fill:#00559f;fill-opacity:1;fill-rule:nonzero;stroke:none;stroke-width:1;marker:none;visibility:visible;display:inline;overflow:visible;enable-background:accumulate"
     id="path2987"
     sodipodi:cx="-19.00386"
     sodipodi:cy="62.212357"
     sodipodi:rx="12.07722"
     sodipodi:ry="12.07722"
     d="m -6.9266405,62.212364 a 12.07722,12.07722 0 1 1 0,0"
     sodipodi:start="6.5636609e-07"
     sodipodi:end="6.2831859"
     sodipodi:open="true"
     transform="matrix(3.0294118,0,0,3.0294118,95.267431,-151.11936)" />
  <rect
     style="color:#000000;fill:#ffffff;fill-opacity:1;fill-rule:nonzero;stroke:none;stroke-width:1;marker:none;visibility:visible;display:inline;overflow:visible;enable-background:accumulate"
     id="rect3757"
     width="5.8610044"
     height="33.212353"
     x="34.277992"
     y="10.351352"
     ry="4.3619914" />
  <rect
     ry="1.1835604"
     y="-79.218033"
     x="13.693645"
     height="29.375719"
     width="2.3671207"
     id="rect3759"
     style="color:#000000;fill:#ffffff;fill-opacity:1;fill-rule:nonzero;stroke:none;stroke-width:1;marker:none;visibility:visible;display:inline;overflow:visible;enable-background:accumulate"
     transform="matrix(-0.53864577,0.84253234,-0.84253234,-0.53864577,0,0)" />
  <g
     id="g3765">
    <path
       sodipodi:open="true"
       sodipodi:end="5.9282041e-07"
       sodipodi:start="6.5636609e-07"
       d="m 39.606178,5.0231673 a 1.7760618,1.7760618 0 1 1 0,0 1.7760618,1.7760618 0 1 1 0,-1e-7 z"
       sodipodi:ry="1.7760618"
       sodipodi:rx="1.7760618"
       sodipodi:cy="5.0231662"
       sodipodi:cx="37.830116"
       id="path3761"
       style="color:#000000;fill:#ffffff;fill-opacity:1;fill-rule:nonzero;stroke:none;stroke-width:1;marker:none;visibility:visible;display:inline;overflow:visible;enable-background:accumulate"
       sodipodi:type="arc" />
    <path
       transform="translate(0,64.471042)"
       sodipodi:type="arc"
       style="color:#000000;fill:#ffffff;fill-opacity:1;fill-rule:nonzero;stroke:none;stroke-width:1;marker:none;visibility:visible;display:inline;overflow:visible;enable-background:accumulate"
       id="path3763"
       sodipodi:cx="37.830116"
       sodipodi:cy="5.0231662"
       sodipodi:rx="1.7760618"
       sodipodi:ry="1.7760618"
       d="m 39.606178,5.0231673 a 1.7760618,1.7760618 0 1 1 0,-1e-7"
       sodipodi:start="6.5636609e-07"
       sodipodi:end="6.2831859"
       sodipodi:open="true" />
  </g>
  <g
     id="g3769"
     transform="matrix(0,1,-1,0,75.088803,-0.57142909)">
    <path
       sodipodi:type="arc"
       style="color:#000000;fill:#ffffff;fill-opacity:1;fill-rule:nonzero;stroke:none;stroke-width:1;marker:none;visibility:visible;display:inline;overflow:visible;enable-background:accumulate"
       id="path3771"
       sodipodi:cx="37.830116"
       sodipodi:cy="5.0231662"
       sodipodi:rx="1.7760618"
       sodipodi:ry="1.7760618"
       d="m 39.606178,5.0231673 c -10e-7,0.9808919 -0.795171,1.7760613 -1.776063,1.7760607 -0.980892,-7e-7 -1.776061,-0.7951712 -1.776061,-1.776063 10e-7,-0.9808918 0.795172,-1.7760612 1.776063,-1.7760606 0.980892,7e-7 1.776062,0.795171 1.776061,1.7760628"
       sodipodi:start="6.5636609e-07"
       sodipodi:end="6.2831859"
       sodipodi:open="true" />
    <path
       sodipodi:open="true"
       sodipodi:end="6.2831859"
       sodipodi:start="6.5636609e-07"
       d="m 39.606178,5.0231673 c -10e-7,0.9808919 -0.795171,1.7760613 -1.776063,1.7760607 -0.980892,-7e-7 -1.776061,-0.7951712 -1.776061,-1.776063 10e-7,-0.9808918 0.795172,-1.7760612 1.776063,-1.7760606 0.980892,7e-7 1.776062,0.795171 1.776061,1.7760628"
       sodipodi:ry="1.7760618"
       sodipodi:rx="1.7760618"
       sodipodi:cy="5.0231662"
       sodipodi:cx="37.830116"
       id="path3773"
       style="color:#000000;fill:#ffffff;fill-opacity:1;fill-rule:nonzero;stroke:none;stroke-width:1;marker:none;visibility:visible;display:inline;overflow:visible;enable-background:accumulate"
       sodipodi:type="arc"
       transform="translate(0,64.471042)" />
  </g>
  <g
     id="g3775"
     transform="matrix(0.85714599,0.51507354,-0.51507354,0.85714599,24.595148,-14.162739)">
    <path
       sodipodi:type="arc"
       style="color:#000000;fill:#ffffff;fill-opacity:1;fill-rule:nonzero;stroke:none;stroke-width:1;marker:none;visibility:visible;display:inline;overflow:visible;enable-background:accumulate"
       id="path3777"
       sodipodi:cx="37.830116"
       sodipodi:cy="5.0231662"
       sodipodi:rx="1.7760618"
       sodipodi:ry="1.7760618"
       d="m 39.606178,5.0231673 c -10e-7,0.9808919 -0.795171,1.7760613 -1.776063,1.7760607 -0.980892,-7e-7 -1.776061,-0.7951712 -1.776061,-1.776063 10e-7,-0.9808918 0.795172,-1.7760612 1.776063,-1.7760606 0.980892,7e-7 1.776062,0.795171 1.776061,1.7760628"
       sodipodi:start="6.5636609e-07"
       sodipodi:end="6.2831859"
       sodipodi:open="true" />
    <path
       sodipodi:open="true"
       sodipodi:end="6.2831859"
       sodipodi:start="6.5636609e-07"
       d="m 39.606178,5.0231673 c -10e-7,0.9808919 -0.795171,1.7760613 -1.776063,1.7760607 -0.980892,-7e-7 -1.776061,-0.7951712 -1.776061,-1.776063 10e-7,-0.9808918 0.795172,-1.7760612 1.776063,-1.7760606 0.980892,7e-7 1.776062,0.795171 1.776061,1.7760628"
       sodipodi:ry="1.7760618"
       sodipodi:rx="1.7760618"
       sodipodi:cy="5.0231662"
       sodipodi:cx="37.830116"
       id="path3779"
       style="color:#000000;fill:#ffffff;fill-opacity:1;fill-rule:nonzero;stroke:none;stroke-width:1;marker:none;visibility:visible;display:inline;overflow:visible;enable-background:accumulate"
       sodipodi:type="arc"
       transform="translate(0,64.471042)" />
  </g>
  <g
     transform="matrix(-0.43753167,0.899203,-0.899203,-0.43753167,87.885113,19.543589)"
     id="g3781">
    <path
       sodipodi:open="true"
       sodipodi:end="6.2831859"
       sodipodi:start="6.5636609e-07"
       d="m 39.606178,5.0231673 c -10e-7,0.9808919 -0.795171,1.7760613 -1.776063,1.7760607 -0.980892,-7e-7 -1.776061,-0.7951712 -1.776061,-1.776063 10e-7,-0.9808918 0.795172,-1.7760612 1.776063,-1.7760606 0.980892,7e-7 1.776062,0.795171 1.776061,1.7760628"
       sodipodi:ry="1.7760618"
       sodipodi:rx="1.7760618"
       sodipodi:cy="5.0231662"
       sodipodi:cx="37.830116"
       id="path3783"
       style="color:#000000;fill:#ffffff;fill-opacity:1;fill-rule:nonzero;stroke:none;stroke-width:1;marker:none;visibility:visible;display:inline;overflow:visible;enable-background:accumulate"
       sodipodi:type="arc" />
    <path
       transform="translate(0,64.471042)"
       sodipodi:type="arc"
       style="color:#000000;fill:#ffffff;fill-opacity:1;fill-rule:nonzero;stroke:none;stroke-width:1;marker:none;visibility:visible;display:inline;overflow:visible;enable-background:accumulate"
       id="path3785"
       sodipodi:cx="37.830116"
       sodipodi:cy="5.0231662"
       sodipodi:rx="1.7760618"
       sodipodi:ry="1.7760618"
       d="m 39.606178,5.0231673 c -10e-7,0.9808919 -0.795171,1.7760613 -1.776063,1.7760607 -0.980892,-7e-7 -1.776061,-0.7951712 -1.776061,-1.776063 10e-7,-0.9808918 0.795172,-1.7760612 1.776063,-1.7760606 0.980892,7e-7 1.776062,0.795171 1.776061,1.7760628"
       sodipodi:start="6.5636609e-07"
       sodipodi:end="6.2831859"
       sodipodi:open="true" />
  </g>
  <g
     transform="matrix(0.51276858,0.85852687,-0.85852687,0.51276858,50.419606,-14.324568)"
     id="g3787">
    <path
       sodipodi:open="true"
       sodipodi:end="6.2831859"
       sodipodi:start="6.5636609e-07"
       d="m 39.606178,5.0231673 c -10e-7,0.9808919 -0.795171,1.7760613 -1.776063,1.7760607 -0.980892,-7e-7 -1.776061,-0.7951712 -1.776061,-1.776063 10e-7,-0.9808918 0.795172,-1.7760612 1.776063,-1.7760606 0.980892,7e-7 1.776062,0.795171 1.776061,1.7760628"
       sodipodi:ry="1.7760618"
       sodipodi:rx="1.7760618"
       sodipodi:cy="5.0231662"
       sodipodi:cx="37.830116"
       id="path3789"
       style="color:#000000;fill:#ffffff;fill-opacity:1;fill-rule:nonzero;stroke:none;stroke-width:1;marker:none;visibility:visible;display:inline;overflow:visible;enable-background:accumulate"
       sodipodi:type="arc" />
    <path
       transform="translate(0,64.471042)"
       sodipodi:type="arc"
       style="color:#000000;fill:#ffffff;fill-opacity:1;fill-rule:nonzero;stroke:none;stroke-width:1;marker:none;visibility:visible;display:inline;overflow:visible;enable-background:accumulate"
       id="path3791"
       sodipodi:cx="37.830116"
       sodipodi:cy="5.0231662"
       sodipodi:rx="1.7760618"
       sodipodi:ry="1.7760618"
       d="m 39.606178,5.0231673 c -10e-7,0.9808919 -0.795171,1.7760613 -1.776063,1.7760607 -0.980892,-7e-7 -1.776061,-0.7951712 -1.776061,-1.776063 10e-7,-0.9808918 0.795172,-1.7760612 1.776063,-1.7760606 0.980892,7e-7 1.776062,0.795171 1.776061,1.7760628"
       sodipodi:start="6.5636609e-07"
       sodipodi:end="6.2831859"
       sodipodi:open="true" />
  </g>
  <g
     id="g3793"
     transform="matrix(-0.81798307,0.5752423,-0.5752423,-0.81798307,90.207283,45.97418)">
    <path
       sodipodi:type="arc"
       style="color:#000000;fill:#ffffff;fill-opacity:1;fill-rule:nonzero;stroke:none;stroke-width:1;marker:none;visibility:visible;display:inline;overflow:visible;enable-background:accumulate"
       id="path3795"
       sodipodi:cx="37.830116"
       sodipodi:cy="5.0231662"
       sodipodi:rx="1.7760618"
       sodipodi:ry="1.7760618"
       d="m 39.606178,5.0231673 c -10e-7,0.9808919 -0.795171,1.7760613 -1.776063,1.7760607 -0.980892,-7e-7 -1.776061,-0.7951712 -1.776061,-1.776063 10e-7,-0.9808918 0.795172,-1.7760612 1.776063,-1.7760606 0.980892,7e-7 1.776062,0.795171 1.776061,1.7760628"
       sodipodi:start="6.5636609e-07"
       sodipodi:end="6.2831859"
       sodipodi:open="true" />
    <path
       sodipodi:open="true"
       sodipodi:end="6.2831859"
       sodipodi:start="6.5636609e-07"
       d="m 39.606178,5.0231673 c -10e-7,0.9808919 -0.795171,1.7760613 -1.776063,1.7760607 -0.980892,-7e-7 -1.776061,-0.7951712 -1.776061,-1.776063 10e-7,-0.9808918 0.795172,-1.7760612 1.776063,-1.7760606 0.980892,7e-7 1.776062,0.795171 1.776061,1.7760628"
       sodipodi:ry="1.7760618"
       sodipodi:rx="1.7760618"
       sodipodi:cy="5.0231662"
       sodipodi:cx="37.830116"
       id="path3797"
       style="color:#000000;fill:#ffffff;fill-opacity:1;fill-rule:nonzero;stroke:none;stroke-width:1;marker:none;visibility:visible;display:inline;overflow:visible;enable-background:accumulate"
       sodipodi:type="arc"
       transform="translate(0,64.471042)" />
  </g>
  <path
     sodipodi:type="arc"
     style="color:#000000;fill:#ffffff;fill-opacity:1;fill-rule:nonzero;stroke:none;stroke-width:1;marker:none;visibility:visible;display:inline;overflow:visible;enable-background:accumulate"
     id="path3803"
     sodipodi:cx="-19.00386"
     sodipodi:cy="62.212357"
     sodipodi:rx="12.07722"
     sodipodi:ry="12.07722"
     d="m -6.9266405,62.212364 a 12.07722,12.07722 0 1 1 0,0"
     sodipodi:start="6.5636609e-07"
     sodipodi:end="6.2831859"
     sodipodi:open="true"
     transform="matrix(0.64705884,0,0,0.64705884,49.993528,-2.907568)" />
  <path
     transform="matrix(0.54411766,0,0,0.54411766,48.037248,3.4966452)"
     sodipodi:open="true"
     sodipodi:end="6.2831859"
     sodipodi:start="6.5636609e-07"
     d="m -6.9266405,62.212364 a 12.07722,12.07722 0 1 1 0,0"
     sodipodi:ry="12.07722"
     sodipodi:rx="12.07722"
     sodipodi:cy="62.212357"
     sodipodi:cx="-19.00386"
     id="path3801"
     style="color:#000000;fill:#00559f;fill-opacity:1;fill-rule:nonzero;stroke:none;stroke-width:1;marker:none;visibility:visible;display:inline;overflow:visible;enable-background:accumulate"
     sodipodi:type="arc" />
</svg>
