<?xml version="1.0" encoding="UTF-8" standalone="no"?>
<!-- Created with Inkscape (http://www.inkscape.org/) -->

<svg
   xmlns:dc="http://purl.org/dc/elements/1.1/"
   xmlns:cc="http://creativecommons.org/ns#"
   xmlns:rdf="http://www.w3.org/1999/02/22-rdf-syntax-ns#"
   xmlns:svg="http://www.w3.org/2000/svg"
   xmlns="http://www.w3.org/2000/svg"
   xmlns:sodipodi="http://sodipodi.sourceforge.net/DTD/sodipodi-0.dtd"
   xmlns:inkscape="http://www.inkscape.org/namespaces/inkscape"
   id="svg2"
   version="1.1"
   inkscape:version="0.48.0 r9654"
   width="75"
   height="75"
   sodipodi:docname="where.svg"
   inkscape:export-filename="/home/tatica/Documentos/tatica/Comunidades/fedora/Eventos/FUDcon-Emea-2011/website-FUDcon/images/where.png"
   inkscape:export-xdpi="90"
   inkscape:export-ydpi="90">
  <metadata
     id="metadata8">
    <rdf:RDF>
      <cc:Work
         rdf:about="">
        <dc:format>image/svg+xml</dc:format>
        <dc:type
           rdf:resource="http://purl.org/dc/dcmitype/StillImage" />
        <dc:title></dc:title>
        <dc:title></dc:title>
      </cc:Work>
    </rdf:RDF>
  </metadata>
  <defs
     id="defs6" />
  <sodipodi:namedview
     pagecolor="#ffffff"
     bordercolor="#666666"
     borderopacity="1"
     objecttolerance="10"
     gridtolerance="10"
     guidetolerance="10"
     inkscape:pageopacity="0"
     inkscape:pageshadow="2"
     inkscape:window-width="1440"
     inkscape:window-height="852"
     id="namedview4"
     showgrid="false"
     borderlayer="true"
     inkscape:showpageshadow="false"
     inkscape:zoom="0.99532966"
     inkscape:cx="217.19999"
     inkscape:cy="8.5226364"
     inkscape:window-x="0"
     inkscape:window-y="0"
     inkscape:window-maximized="1"
     inkscape:current-layer="svg2" />
  <path
     sodipodi:type="arc"
     style="color:#000000;fill:#00559f;fill-opacity:1;fill-rule:nonzero;stroke:none;stroke-width:1;marker:none;visibility:visible;display:inline;overflow:visible;enable-background:accumulate"
     id="path2987"
     sodipodi:cx="-19.00386"
     sodipodi:cy="62.212357"
     sodipodi:rx="12.07722"
     sodipodi:ry="12.07722"
     d="m -6.9266405,62.212364 a 12.07722,12.07722 0 1 1 0,0"
     sodipodi:start="6.5636609e-07"
     sodipodi:end="6.2831859"
     sodipodi:open="true"
     transform="matrix(3.0294118,0,0,3.0294118,95.267431,-151.11936)" />
  <path
     style="fill:#ffffff"
     d="m 46.86055,5.3416249 c -1.005432,0 -1.129108,0.2943241 -0.843247,1.9488372 0.573233,3.3176899 0.731815,3.5424639 2.173703,3.1481209 1.166135,-0.318926 1.20483,-0.267718 0.299822,0.299821 -0.577156,0.361939 -1.049374,1.039528 -1.049374,1.517843 0,0.478317 -0.5269,0.880725 -1.180546,0.880725 -1.095744,0 -1.196766,0.39269 -1.161807,5.153174 0.03495,4.759798 -0.07219,5.29408 -1.499106,6.783452 -2.213591,2.310493 -2.177576,6.476453 0.09369,9.687968 1.579683,2.233625 1.789765,2.33006 5.022003,2.342352 l 3.372986,0.01874 1.274241,2.960734 c 0.700218,1.627705 1.274239,4.136511 1.274239,5.584166 0,2.140651 1.203276,6.665496 3.279291,12.292663 0.154819,0.419641 1.291412,0.749555 2.567219,0.749555 l 2.267396,0 1.742711,-4.553533 c 1.267763,-3.320508 2.107975,-4.68988 3.129382,-5.078219 1.265233,-0.48104 1.40541,-0.895644 1.40541,-4.366145 0,-2.76438 0.274727,-4.063349 0.955681,-4.628487 0.9623,-0.79864 0.974886,-4.462754 0.03748,-10.456259 -0.428953,-2.742583 -5.135472,-12.405654 -6.202548,-12.742396 -0.42505,-0.134132 -0.785165,0.571036 -0.899463,1.761449 -0.168781,1.757784 -0.415462,2.006288 -2.154963,2.173703 -1.241308,0.119464 -2.737739,-0.284482 -4.066324,-1.105591 -1.466058,-0.906076 -2.784612,-1.239461 -4.384882,-1.086851 -2.065859,0.197012 -2.243297,0.108344 -1.649016,-0.843247 0.816477,-1.307387 2.289547,-1.341325 4.665965,-0.11243 1.002793,0.518568 2.1878,0.811479 2.642173,0.637119 0.454377,-0.17436 0.985618,-0.0718 1.180545,0.243606 0.638246,1.032702 1.934578,0.601551 2.979472,-0.993157 1.013258,-1.546422 0.985134,-1.594778 -1.292979,-3.953891 C 57.806819,10.464725 53.588989,7.5787609 52.782015,8.0774974 52.428629,8.2959029 51.75122,7.8921327 51.264171,7.1967735 50.880151,6.6485064 50.372288,6.2644421 49.914976,6.0724449 49.152792,5.7524472 48.532881,5.9736824 48.865604,6.8407353 c 0.189833,0.4947059 0.07583,0.8994632 -0.243606,0.8994632 -0.319453,0 -0.580903,-0.5396769 -0.580903,-1.1992834 0,-0.7944629 -0.396016,-1.1992847 -1.180545,-1.1992847 z M 24.673792,6.7470357 c -0.522301,0.00631 -1.349117,0.4248114 -3.073167,1.3491955 -3.431697,1.839971 -8.454996,6.5725338 -11.299506,10.4562598 -1.1240584,1.694247 -2.0980989,3.465013 -2.9045153,5.321822 l 1.6302761,-0.337298 c 2.0836852,-0.41674 2.0632132,-0.449552 1.1618062,2.136225 -0.4974509,1.426986 -0.9241503,1.828687 -1.6490161,1.536583 -0.5378475,-0.216746 -1.2868133,-0.536805 -1.6677532,-0.693337 -0.1890373,-0.07767 -0.3929946,0.05499 -0.5809036,0.318562 -0.259723,0.79736 -0.4947115,1.598297 -0.6933358,2.417307 -0.021168,0.853146 0.3697626,1.317221 1.4616275,2.173702 4.8139132,3.776127 4.5238792,3.250006 3.4292032,6.633541 -0.9814103,3.033434 -0.9707131,3.037656 0.674597,5.696601 0.905592,1.463504 2.69361,3.748855 3.972629,5.078217 2.177596,2.263314 2.281591,2.553031 1.72397,4.497316 -0.327511,1.141977 -0.599641,3.518125 -0.599641,5.284348 0,2.819235 0.238914,3.419765 1.873881,4.947048 1.024285,0.956831 2.089328,1.742711 2.37983,1.742711 0.290497,0 0.945786,-1.011896 1.461628,-2.248658 0.515848,-1.236764 1.705034,-3.058177 2.642173,-4.047587 0.937144,-0.989409 2.244238,-2.878282 2.904517,-4.197495 0.660278,-1.319213 2.279887,-3.270298 3.597852,-4.328665 1.899845,-1.525635 2.550871,-2.569869 3.148122,-5.059482 l 0.768291,-3.14812 -2.042531,-1.723972 c -1.120252,-0.948831 -2.852048,-2.1411 -3.841458,-2.660912 -0.989409,-0.519811 -2.11748,-1.410532 -2.511,-1.967575 -1.121565,-1.587642 -7.847925,-4.371199 -9.687969,-4.010107 -1.171276,0.229855 -2.031389,-0.08811 -3.241815,-1.236763 l -1.630278,-1.574059 2.22992,-1.367933 c 1.234854,-0.752257 2.788335,-1.623106 3.447942,-1.9301 0.659606,-0.306991 2.953237,-1.65094 5.096959,-2.998209 2.14372,-1.347264 5.183864,-3.023593 6.745973,-3.729025 1.56211,-0.705431 2.690918,-1.52656 2.511001,-1.817665 -0.17991,-0.291105 0.104877,-0.524688 0.63712,-0.524688 0.933891,0 7.775662,-3.83259 10.175177,-5.696598 1.05413,-0.818877 1.05531,-0.899463 0.11243,-0.899463 -0.665175,0 -0.973849,-0.3831384 -0.861985,-1.0493749 0.153371,-0.913404 -0.4341,-1.083318 -4.534794,-1.2367617 C 34.695415,7.742403 31.77411,8.0168127 29.845702,8.5834408 28.149381,9.0818735 26.679489,9.2679492 26.585148,8.9956947 26.4908,8.7234384 26.060899,8.0303932 25.629469,7.4403729 25.304835,6.9964149 25.080023,6.7421566 24.673789,6.7470357 z"
     id="path3873"
     inkscape:connector-curvature="0" />
</svg>
