<?xml version="1.0" encoding="UTF-8" standalone="no"?>
<!-- Created with Inkscape (http://www.inkscape.org/) -->
<svg
   xmlns:i="http://ns.adobe.com/AdobeIllustrator/10.0/"
   xmlns:dc="http://purl.org/dc/elements/1.1/"
   xmlns:cc="http://creativecommons.org/ns#"
   xmlns:rdf="http://www.w3.org/1999/02/22-rdf-syntax-ns#"
   xmlns:svg="http://www.w3.org/2000/svg"
   xmlns="http://www.w3.org/2000/svg"
   xmlns:xlink="http://www.w3.org/1999/xlink"
   xmlns:sodipodi="http://sodipodi.sourceforge.net/DTD/sodipodi-0.dtd"
   xmlns:inkscape="http://www.inkscape.org/namespaces/inkscape"
   width="600"
   height="200"
   id="svg2"
   sodipodi:version="0.32"
   inkscape:version="0.46"
   version="1.0"
   sodipodi:docname="5years-banner_de.svg"
   inkscape:output_extension="org.inkscape.output.svg.inkscape"
   inkscape:export-filename="/home/duffy/Desktop/5years-banner.png"
   inkscape:export-xdpi="90"
   inkscape:export-ydpi="90">
  <defs
     id="defs4">
    <linearGradient
       id="linearGradient4873">
      <stop
         style="stop-color:#ffcd6b;stop-opacity:1;"
         offset="0"
         id="stop4875" />
      <stop
         style="stop-color:#ffa800;stop-opacity:1;"
         offset="1"
         id="stop4877" />
    </linearGradient>
    <linearGradient
       inkscape:collect="always"
       id="linearGradient4757">
      <stop
         style="stop-color:#ffff00;stop-opacity:1;"
         offset="0"
         id="stop4759" />
      <stop
         style="stop-color:#ffa800;stop-opacity:1"
         offset="1"
         id="stop4761" />
    </linearGradient>
    <inkscape:perspective
       sodipodi:type="inkscape:persp3d"
       inkscape:vp_x="0 : 50 : 1"
       inkscape:vp_y="0 : 1000 : 0"
       inkscape:vp_z="200 : 50 : 1"
       inkscape:persp3d-origin="100 : 33.333333 : 1"
       id="perspective120" />
    <linearGradient
       id="linearGradient3452">
      <stop
         style="stop-color:#0e64b7;stop-opacity:1;"
         offset="0"
         id="stop3454" />
      <stop
         style="stop-color:#093e71;stop-opacity:1;"
         offset="1"
         id="stop3456" />
    </linearGradient>
    <filter
       inkscape:collect="always"
       id="filter3921">
      <feGaussianBlur
         inkscape:collect="always"
         stdDeviation="0.50984375"
         id="feGaussianBlur3923" />
    </filter>
    <filter
       inkscape:collect="always"
       id="filter3929"
       x="-0.013531407"
       width="1.0270628"
       y="-0.10603115"
       height="1.2120624">
      <feGaussianBlur
         inkscape:collect="always"
         stdDeviation="0.8650375"
         id="feGaussianBlur3931" />
    </filter>
    <filter
       inkscape:collect="always"
       id="filter3972"
       x="-0.034404341"
       width="1.0688087"
       y="-0.94152564"
       height="2.8830514">
      <feGaussianBlur
         inkscape:collect="always"
         stdDeviation="2.8226791"
         id="feGaussianBlur3974" />
    </filter>
    <filter
       inkscape:collect="always"
       id="filter4060"
       x="-0.068541162"
       width="1.1370823"
       y="-2.1082401"
       height="5.2164803">
      <feGaussianBlur
         inkscape:collect="always"
         stdDeviation="5.6189473"
         id="feGaussianBlur4062" />
    </filter>
    <radialGradient
       inkscape:collect="always"
       xlink:href="#linearGradient3452"
       id="radialGradient2595"
       gradientUnits="userSpaceOnUse"
       gradientTransform="matrix(4.59,-0.9717624,0.7302231,1.5329434,-138.15671,29.54597)"
       cx="59.896908"
       cy="44.137047"
       fx="59.896908"
       fy="44.137047"
       r="100" />
    <clipPath
       clipPathUnits="userSpaceOnUse"
       id="clipPath2605">
      <rect
         width="162.91278"
         height="54.30426"
         ry="4.3443408"
         rx="6.516511"
         y="28.402267"
         x="9.3494349"
         id="rect2607"
         style="fill:url(#radialGradient2609);fill-opacity:1;stroke:none;stroke-width:1;stroke-miterlimit:4;stroke-dasharray:none;stroke-opacity:1" />
    </clipPath>
    <radialGradient
       inkscape:collect="always"
       xlink:href="#linearGradient3452"
       id="radialGradient2609"
       gradientUnits="userSpaceOnUse"
       gradientTransform="matrix(1.2462827,-0.2638542,0.1982711,0.4162268,-28.434575,63.305236)"
       cx="59.896908"
       cy="44.137047"
       fx="59.896908"
       fy="44.137047"
       r="100" />
    <filter
       inkscape:collect="always"
       id="filter4472">
      <feGaussianBlur
         inkscape:collect="always"
         stdDeviation="3.0906902"
         id="feGaussianBlur4474" />
    </filter>
    <filter
       inkscape:collect="always"
       id="filter4751"
       x="-0.012378847"
       width="1.0247577"
       y="-0.39210061"
       height="1.7842012">
      <feGaussianBlur
         inkscape:collect="always"
         stdDeviation="2.7201896"
         id="feGaussianBlur4753" />
    </filter>
    <linearGradient
       inkscape:collect="always"
       xlink:href="#linearGradient4757"
       id="linearGradient4763"
       x1="-21.611481"
       y1="121.09076"
       x2="24.800798"
       y2="30.974676"
       gradientUnits="userSpaceOnUse" />
    <filter
       inkscape:collect="always"
       id="filter4801">
      <feGaussianBlur
         inkscape:collect="always"
         stdDeviation="1.8086209"
         id="feGaussianBlur4803" />
    </filter>
    <clipPath
       clipPathUnits="userSpaceOnUse"
       id="clipPath4813">
      <rect
         width="600"
         height="200"
         ry="16"
         rx="24"
         y="-377"
         x="515"
         id="rect4815"
         style="fill:url(#radialGradient4817);fill-opacity:1;stroke:none;stroke-width:1;stroke-miterlimit:4;stroke-dasharray:none;stroke-opacity:1" />
    </clipPath>
    <radialGradient
       inkscape:collect="always"
       xlink:href="#linearGradient3452"
       id="radialGradient4817"
       gradientUnits="userSpaceOnUse"
       gradientTransform="matrix(4.59,-0.9717624,0.7302231,1.5329434,375.84329,-248.45403)"
       cx="59.896908"
       cy="44.137047"
       fx="59.896908"
       fy="44.137047"
       r="100" />
    <clipPath
       clipPathUnits="userSpaceOnUse"
       id="clipPath4843">
      <rect
         width="565.21722"
         height="188.40573"
         ry="15.072459"
         rx="22.608688"
         y="13.595273"
         x="-520.99585"
         id="rect4845"
         style="fill:url(#radialGradient4847);fill-opacity:1;stroke:none;stroke-width:1;stroke-miterlimit:4;stroke-dasharray:none;stroke-opacity:1" />
    </clipPath>
    <radialGradient
       inkscape:collect="always"
       xlink:href="#linearGradient3452"
       id="radialGradient4847"
       gradientUnits="userSpaceOnUse"
       gradientTransform="matrix(4.3239117,-0.9154281,0.6878911,1.4440767,-652.08545,134.68926)"
       cx="59.896908"
       cy="44.137047"
       fx="59.896908"
       fy="44.137047"
       r="100" />
    <radialGradient
       inkscape:collect="always"
       xlink:href="#linearGradient4873"
       id="radialGradient4879"
       cx="301.08028"
       cy="74.025485"
       fx="301.08028"
       fy="74.025485"
       r="155.05164"
       gradientTransform="matrix(1,0,0,0.1452773,0,65.271261)"
       gradientUnits="userSpaceOnUse" />
    <linearGradient
       inkscape:collect="always"
       xlink:href="#linearGradient4873"
       id="linearGradient4881"
       x1="464"
       y1="70"
       x2="498.5"
       y2="75"
       gradientUnits="userSpaceOnUse"
       gradientTransform="translate(0,2)" />
    <linearGradient
       inkscape:collect="always"
       xlink:href="#linearGradient4873"
       id="linearGradient4883"
       x1="147"
       y1="69"
       x2="117"
       y2="67.68367"
       gradientUnits="userSpaceOnUse"
       gradientTransform="translate(0,2)" />
    <clipPath
       clipPathUnits="userSpaceOnUse"
       id="clipPath4887">
      <rect
         width="634.79144"
         height="211.59715"
         ry="16.927773"
         rx="25.391659"
         y="-90.375481"
         x="-32.505486"
         id="rect4889"
         style="fill:url(#radialGradient4891);fill-opacity:1;stroke:none;stroke-width:1;stroke-miterlimit:4;stroke-dasharray:none;stroke-opacity:1" />
    </clipPath>
    <radialGradient
       inkscape:collect="always"
       xlink:href="#linearGradient3452"
       id="radialGradient4891"
       gradientUnits="userSpaceOnUse"
       gradientTransform="matrix(4.8561547,-1.0281108,0.7725656,1.6218323,-179.7313,45.624325)"
       cx="59.896908"
       cy="44.137047"
       fx="59.896908"
       fy="44.137047"
       r="100" />
    <clipPath
       clipPathUnits="userSpaceOnUse"
       id="clipPath5057">
      <rect
         width="600"
         height="200"
         ry="16"
         rx="24"
         y="-99"
         x="1"
         id="rect5059"
         style="fill:url(#radialGradient5061);fill-opacity:1;stroke:none;stroke-width:1;stroke-miterlimit:4;stroke-dasharray:none;stroke-opacity:1" />
    </clipPath>
    <radialGradient
       inkscape:collect="always"
       xlink:href="#linearGradient3452"
       id="radialGradient5061"
       gradientUnits="userSpaceOnUse"
       gradientTransform="matrix(4.59,-0.9717624,0.7302231,1.5329434,-138.15671,29.54597)"
       cx="59.896908"
       cy="44.137047"
       fx="59.896908"
       fy="44.137047"
       r="100" />
  </defs>
  <sodipodi:namedview
     id="base"
     pagecolor="#ffffff"
     bordercolor="#666666"
     borderopacity="1.0"
     gridtolerance="10000"
     guidetolerance="10"
     objecttolerance="10"
     inkscape:pageopacity="0.0"
     inkscape:pageshadow="2"
     inkscape:zoom="1"
     inkscape:cx="367.41053"
     inkscape:cy="60"
     inkscape:document-units="px"
     inkscape:current-layer="layer1"
     showgrid="false"
     inkscape:showpageshadow="true"
     showborder="true"
     inkscape:window-width="1179"
     inkscape:window-height="903"
     inkscape:window-x="626"
     inkscape:window-y="25" />
  <metadata
     id="metadata7">
    <rdf:RDF>
      <cc:Work
         rdf:about="">
        <dc:format>image/svg+xml</dc:format>
        <dc:type
           rdf:resource="http://purl.org/dc/dcmitype/StillImage" />
      </cc:Work>
    </rdf:RDF>
  </metadata>
  <g
     inkscape:label="Layer 1"
     inkscape:groupmode="layer"
     id="layer1"
     transform="translate(0,100)">
    <rect
       style="fill:url(#radialGradient2595);fill-opacity:1;stroke:none;stroke-width:1;stroke-miterlimit:4;stroke-dasharray:none;stroke-opacity:1"
       id="rect3429"
       x="1"
       y="-99"
       rx="24"
       ry="16"
       height="200"
       width="600" />
    <path
       id="path2626"
       d="M 286.21199,-84.017654 C 282.14319,-84.017651 278.81799,-80.803128 278.81799,-76.73568 L 278.81799,-37.861134 C 275.05183,-44.792743 266.84159,-49.512293 257.19612,-49.512293 C 237.60584,-49.512306 224.48324,-34.747527 224.48324,-15.006933 C 224.48324,4.735656 238.05814,19.610459 257.19612,19.610459 C 265.73301,19.610462 273.15265,15.988155 277.58567,9.863815 L 279.26611,14.120969 C 280.28199,16.976539 283.01205,18.938278 286.21199,18.938278 C 290.26223,18.938269 293.606,15.611043 293.606,11.544269 L 293.606,-76.73568 C 293.606,-80.803122 290.28012,-84.017654 286.21199,-84.017654 z M 135.75517,-83.793593 C 120.4946,-83.793593 108.08366,-71.383314 108.08366,-56.122086 L 108.08366,-47.495747 L 99.009185,-47.495747 C 95.694055,-47.495744 92.959545,-44.759929 92.959545,-41.446107 C 92.959545,-38.128996 95.694055,-34.836311 99.009185,-34.836311 L 108.08366,-34.836311 L 108.08366,11.544269 C 108.08366,15.613059 111.41021,18.938278 115.47766,18.938278 C 119.54777,18.938278 122.87167,15.612391 122.87167,11.544269 L 122.87167,-34.836311 L 132.84236,-34.836311 C 136.15681,-34.836302 138.892,-38.12899 138.892,-41.446107 C 138.892,-44.759932 136.15751,-47.495747 132.84236,-47.495747 L 122.87167,-47.495747 L 122.87167,-56.122086 C 122.87166,-63.237827 128.63945,-70.013856 135.75517,-70.013856 C 136.39621,-70.013856 137.02658,-69.995199 137.65968,-69.901824 C 141.69601,-69.30448 145.46329,-71.130262 146.06196,-75.167254 C 146.658,-79.20226 143.82391,-82.970869 139.78825,-83.569534 C 138.44124,-83.76886 137.11872,-83.793593 135.75517,-83.793593 z M 179.11091,-49.512293 C 159.97296,-49.512293 145.0537,-34.144214 145.05368,-15.006933 C 145.05368,4.13234 160.42111,19.610462 179.55905,19.610459 C 190.10914,19.610459 200.78885,15.075377 207.11853,8.295389 C 208.47544,6.937827 209.2471,5.136318 209.2471,3.478082 C 209.2471,2.274134 208.76902,1.060075 208.01476,0.005142 C 206.81014,-1.502107 205.00601,-2.459539 203.19745,-2.459529 C 201.84188,-2.459529 200.66807,-2.174077 199.61248,-1.115163 C 194.33842,4.007261 187.69241,7.175099 180.00717,7.175087 C 169.15775,7.175087 161.04345,-0.319206 160.28981,-10.413687 C 206.85556,-10.413687 206.89447,-10.41369 206.89445,-10.413687 C 209.75732,-10.413687 212.27323,-12.366137 212.27191,-15.230993 C 212.27191,-34.669596 198.09922,-49.512306 179.11091,-49.512293 z M 339.87456,-49.512293 C 320.73662,-49.512293 305.36921,-34.144219 305.36921,-15.006933 C 305.36921,4.1323 320.73662,19.610453 339.87456,19.610459 C 359.01515,19.610459 374.38052,4.132303 374.37991,-15.006933 C 374.37991,-34.144223 359.01449,-49.512288 339.87456,-49.512293 z M 424.23344,-49.512293 C 414.12241,-49.512306 407.39575,-46.487906 401.49127,-38.981436 L 401.04316,-42.45438 C 400.58488,-46.099328 397.41327,-48.952141 393.64915,-48.952141 C 389.56511,-48.952135 386.25513,-45.644115 386.25513,-41.558135 L 386.25513,-41.446107 L 386.25513,11.544269 C 386.25513,15.613013 389.5797,18.938278 393.64915,18.938278 C 397.7179,18.938284 401.04316,15.612391 401.04316,11.544269 L 401.04316,-16.911448 C 401.04309,-29.870752 412.32779,-36.404737 424.23344,-36.404737 C 427.85058,-36.404724 430.73121,-39.397408 430.73121,-43.014529 C 430.73121,-46.631654 427.85058,-49.512293 424.23344,-49.512293 z M 467.70125,-49.512293 C 448.56261,-49.512306 432.97181,-34.144223 432.97181,-15.006933 C 432.97181,4.132351 448.00955,19.610459 466.24483,19.610459 C 475.34528,19.610462 483.54032,14.869735 487.19451,9.975846 L 488.98699,14.569092 C 489.95251,17.13456 492.47021,18.938278 495.37275,18.938278 C 499.11372,18.938287 502.20203,15.954764 502.2066,12.216453 L 502.2066,-5.484349 L 502.2066,-15.006933 C 502.35827,-33.541586 489.10001,-49.512293 467.70125,-49.512293 z M 179.11091,-37.076921 C 189.05704,-37.076921 196.35172,-30.021714 197.70797,-20.832512 C 197.70797,-20.832512 183.38031,-20.832516 160.62592,-20.832512 C 162.13247,-30.473977 169.01445,-37.07693 179.11091,-37.076921 z M 258.98859,-36.404737 C 271.04527,-36.404724 278.81799,-27.213279 278.81799,-15.006933 C 278.81799,-2.803281 271.04527,6.390874 258.98859,6.390874 C 246.93389,6.390886 239.27124,-3.254245 239.27124,-15.006933 C 239.27124,-26.759655 246.93329,-36.404737 258.98859,-36.404737 z M 339.87456,-36.404737 C 351.93052,-36.404737 359.81594,-26.759609 359.81597,-15.006933 C 359.81597,-3.254245 351.93052,6.39088 339.87456,6.390874 C 327.81987,6.390874 320.04516,-3.254236 320.04516,-15.006933 C 320.04516,-26.759621 327.81987,-36.40474 339.87456,-36.404737 z M 467.70125,-36.404737 C 479.75654,-36.404724 487.53062,-26.759658 487.53062,-15.006933 C 487.53062,-3.254242 479.75654,6.390874 467.70125,6.390874 C 455.64459,6.390886 447.75984,-3.254245 447.75984,-15.006933 C 447.75986,-26.759655 455.64459,-36.404737 467.70125,-36.404737 z M 504.11109,9.527722 L 504.11109,9.975846 L 504.89531,9.975846 L 504.89531,12.216453 L 505.34346,12.216453 L 505.34346,9.975846 L 506.12764,9.975846 L 506.12764,9.527722 L 504.11109,9.527722 z M 506.5758,9.527722 L 506.5758,12.216453 L 507.02391,12.216453 L 507.02391,10.760059 C 507.02391,10.670653 507.03053,10.632665 507.02391,10.535996 C 507.05704,10.61147 507.10276,10.669329 507.13592,10.760059 L 507.80813,12.328482 L 508.48029,10.760059 C 508.51343,10.670015 508.55795,10.618097 508.59235,10.535996 C 508.59235,10.63334 508.59235,10.664705 508.59235,10.760059 L 508.59235,12.216453 L 509.04046,12.216453 L 509.04046,9.527722 L 508.48029,9.527722 L 507.92013,10.98412 C 507.87182,11.109278 507.84915,11.209654 507.80813,11.320209 C 507.76707,11.216914 507.74311,11.102646 507.69607,10.98412 L 507.02391,9.527722 L 506.5758,9.527722 z"
       style="opacity:0.19230772;fill:#ffffff;fill-opacity:1"
       sodipodi:nodetypes="cccsssccscccccccscccscccscccssssccsscscscscssccsssccccscccsccssccssccscccccccccsssccsssccsssccccccccccccccscccsccccccsccc" />
    <path
       style="fill:#000000;fill-opacity:0.3982301;stroke:none;stroke-width:1;stroke-miterlimit:4;stroke-dasharray:none;stroke-opacity:1;filter:url(#filter3972)"
       d="M 1.75,91.5 C 1.7706243,92.396761 1.7891125,93.29093 1.8125,94.1875 C 3.58528,98.910482 9.2737265,98.982557 13.5,98.5 C 73.468738,98.449117 133.43794,98.630651 193.40625,98.34375 C 196.72538,97.703227 198.33333,94.656552 198.65625,91.5 L 1.75,91.5 z"
       id="rect3949"
       transform="matrix(3,0,0,1.1661064,1,-16.698734)" />
    <path
       style="fill:#ffffff;fill-opacity:0.70796460999999999;stroke:none;stroke-width:1;stroke-miterlimit:4;stroke-dasharray:none;stroke-opacity:1;filter:url(#filter4060);opacity:0.67788462"
       d="M 190.34375,1.34375 C 143.23031,1.692755 96.114612,1.4115103 49,1.5 C 34.602459,1.5951976 20.134445,1.3030518 5.78125,1.84375 C 3.0909262,2.8415551 1.911058,5.1437621 1.5,7.71875 L 198.25,7.71875 C 198.23765,7.1142527 198.2321,6.5105184 198.21875,5.90625 C 197.20467,2.7894535 193.5472,1.109843 190.34375,1.34375 z"
       id="path3962"
       transform="matrix(3,0,0,0.5929925,1,-97.139656)" />
    <g
       style="filter:url(#filter4751)"
       id="g4741"
       transform="translate(-514,258)">
      <text
         sodipodi:linespacing="107.05559%"
         xml:space="preserve"
         style="font-size:16.68331528px;font-style:normal;font-variant:normal;font-weight:normal;font-stretch:normal;text-align:center;line-height:107.05559254%;text-anchor:middle;fill:#000000;fill-opacity:1;stroke:none;stroke-width:1px;stroke-linecap:butt;stroke-linejoin:miter;stroke-opacity:1;font-family:MgOpen Modata;-inkscape-font-specification:MgOpen Modata"
         x="552.3418"
         y="-212.6283"
         id="text4733"><tspan
           sodipodi:role="line"
           x="552.3418"
           y="-212.6283"
           id="tspan4735"
           style="text-align:start;letter-spacing:0;text-anchor:start;fill:#000000;fill-opacity:1">.24. September 2003</tspan></text>
      <text
         id="text4737"
         y="-212.6283"
         x="932.3418"
         style="font-size:16.68331528px;font-style:normal;font-variant:normal;font-weight:normal;font-stretch:normal;text-align:center;line-height:107.05559254%;text-anchor:middle;fill:#000000;fill-opacity:1;stroke:none;stroke-width:1px;stroke-linecap:butt;stroke-linejoin:miter;stroke-opacity:1;font-family:MgOpen Modata;-inkscape-font-specification:MgOpen Modata"
         xml:space="preserve"
         sodipodi:linespacing="107.05559%"><tspan
           style="text-align:start;letter-spacing:0;text-anchor:start;fill:#000000;fill-opacity:1"
           id="tspan4739"
           y="-212.6283"
           x="932.3418"
           sodipodi:role="line">24. September  2008</tspan></text>
    </g>
    <text
       sodipodi:linespacing="107.05559%"
       xml:space="preserve"
       style="font-size:16.68331528px;font-style:normal;font-variant:normal;font-weight:normal;font-stretch:normal;text-align:center;line-height:107.05559254%;text-anchor:middle;fill:#ffffff;fill-opacity:1;stroke:none;stroke-width:1px;stroke-linecap:butt;stroke-linejoin:miter;stroke-opacity:1;font-family:MgOpen Modata;-inkscape-font-specification:MgOpen Modata"
       x="38.341797"
       y="45.371704"
       id="text3933"><tspan
         sodipodi:role="line"
         x="38.341797"
         y="45.371704"
         id="tspan3937"
         style="text-align:start;letter-spacing:0;text-anchor:start">24. September 2003</tspan></text>
    <text
       id="text4721"
       y="45.371704"
       x="418.3418"
       style="font-size:16.68331528px;font-style:normal;font-variant:normal;font-weight:normal;font-stretch:normal;text-align:center;line-height:107.05559254%;text-anchor:middle;fill:#ffffff;fill-opacity:1;stroke:none;stroke-width:1px;stroke-linecap:butt;stroke-linejoin:miter;stroke-opacity:1;font-family:MgOpen Modata;-inkscape-font-specification:MgOpen Modata"
       xml:space="preserve"
       sodipodi:linespacing="107.05559%"><tspan
         style="text-align:start;letter-spacing:0;text-anchor:start"
         id="tspan4723"
         y="45.371704"
         x="418.3418"
         sodipodi:role="line">24. September 2008</tspan></text>
    <path
       transform="matrix(1.0615388,0,0,1.0615388,554.0573,-113.43191)"
       d="M 60.6,78.17 L 58.576607,88.285349 L 48.762247,85.108451 L 44.460634,94.484513 L 35.643465,89.129902 L 29.295534,97.261211 L 21.950891,90.017555 L 13.89886,96.46575 L 8.4226949,87.723556 L -0.89934787,92.141013 L -4.211814,82.371576 L -14.301316,84.520149 L -15.271506,74.25014 L -25.584539,74.013999 L -24.160151,63.797079 L -34.140737,61.188954 L -30.39856,51.575918 L -39.508643,46.736414 L -33.650418,38.245504 L -41.398871,31.43552 L -33.740417,24.524484 L -39.709518,16.111147 L -30.663704,11.15256 L -34.531659,1.589436 L -24.586147,-1.1493837 L -26.144433,-11.346744 L -15.835388,-11.718145 L -14.999997,-22 L -4.8831825,-19.983961 L -1.6991505,-29.796012 L 7.680033,-25.501218 L 13.041054,-34.314495 L 21.176972,-27.972479 L 28.425968,-35.311858 L 34.880012,-27.264519 L 43.626187,-32.73433 L 48.050418,-23.415504 L 57.822264,-26.720869 L 59.97817,-16.632935 L 70.248884,-17.59566 L 70.02024,-7.2824617 L 80.236125,-5.8506471 L 77.635257,4.1318288 L 87.245572,7.8809939 L 82.412693,16.994589 L 90.899345,22.858987 L 84.094996,30.612385 L 91.000466,38.275863 L 82.591473,44.251077 L 87.543485,53.300497 L 77.983179,57.175401 L 80.714769,67.122904 L 70.518548,68.688601 L 70.882455,78.997917 L 60.6,78.17 z"
       inkscape:randomized="0"
       inkscape:rounded="0"
       inkscape:flatsided="false"
       sodipodi:arg2="1.0406385"
       sodipodi:arg1="0.92428318"
       sodipodi:r2="66.400299"
       sodipodi:r1="59.096268"
       sodipodi:cy="31"
       sodipodi:cx="25"
       sodipodi:sides="27"
       id="path4755"
       style="fill:url(#linearGradient4763);fill-opacity:1;stroke:none;stroke-width:2;stroke-linecap:round;stroke-linejoin:round;stroke-miterlimit:4;stroke-dasharray:none;stroke-dashoffset:0;stroke-opacity:1"
       sodipodi:type="star"
       clip-path="url(#clipPath4843)" />
    <path
       sodipodi:type="star"
       style="fill:none;fill-opacity:1;stroke:#ffff00;stroke-width:0.9420287;stroke-linecap:round;stroke-linejoin:round;stroke-miterlimit:4;stroke-dasharray:none;stroke-dashoffset:0;stroke-opacity:1"
       id="path4765"
       sodipodi:sides="27"
       sodipodi:cx="25"
       sodipodi:cy="31"
       sodipodi:r1="59.096268"
       sodipodi:r2="66.400299"
       sodipodi:arg1="0.92428318"
       sodipodi:arg2="1.0406385"
       inkscape:flatsided="false"
       inkscape:rounded="0"
       inkscape:randomized="0"
       d="M 60.6,78.17 L 58.576607,88.285349 L 48.762247,85.108451 L 44.460634,94.484513 L 35.643465,89.129902 L 29.295534,97.261211 L 21.950891,90.017555 L 13.89886,96.46575 L 8.4226949,87.723556 L -0.89934787,92.141013 L -4.211814,82.371576 L -14.301316,84.520149 L -15.271506,74.25014 L -25.584539,74.013999 L -24.160151,63.797079 L -34.140737,61.188954 L -30.39856,51.575918 L -39.508643,46.736414 L -33.650418,38.245504 L -41.398871,31.43552 L -33.740417,24.524484 L -39.709518,16.111147 L -30.663704,11.15256 L -34.531659,1.589436 L -24.586147,-1.1493837 L -26.144433,-11.346744 L -15.835388,-11.718145 L -14.999997,-22 L -4.8831825,-19.983961 L -1.6991505,-29.796012 L 7.680033,-25.501218 L 13.041054,-34.314495 L 21.176972,-27.972479 L 28.425968,-35.311858 L 34.880012,-27.264519 L 43.626187,-32.73433 L 48.050418,-23.415504 L 57.822264,-26.720869 L 59.97817,-16.632935 L 70.248884,-17.59566 L 70.02024,-7.2824617 L 80.236125,-5.8506471 L 77.635257,4.1318288 L 87.245572,7.8809939 L 82.412693,16.994589 L 90.899345,22.858987 L 84.094996,30.612385 L 91.000466,38.275863 L 82.591473,44.251077 L 87.543485,53.300497 L 77.983179,57.175401 L 80.714769,67.122904 L 70.518548,68.688601 L 70.882455,78.997917 L 60.6,78.17 z"
       transform="matrix(1.0615388,0,0,1.0615388,554.0573,-113.43191)" />
    <g
       style="opacity:0.10666665"
       id="g4429"
       transform="matrix(2.0097438,0,0,2.0097438,-104.40129,-226.29281)">
      <text
         xml:space="preserve"
         style="font-size:20px;font-style:normal;font-variant:normal;font-weight:bold;font-stretch:normal;text-align:start;text-anchor:start;fill:#000000;fill-opacity:1;stroke:none;stroke-width:1px;stroke-linecap:butt;stroke-linejoin:miter;stroke-opacity:1;filter:url(#filter3929);font-family:MgOpen Modata;-inkscape-font-specification:MgOpen Modata Bold"
         x="36"
         y="48"
         id="text4431"><tspan
           sodipodi:role="line"
           id="tspan4433"
           x="36"
           y="48">Happy birthday!</tspan></text>
      <text
         id="text4435"
         y="47"
         x="35"
         style="font-size:20px;font-style:normal;font-variant:normal;font-weight:bold;font-stretch:normal;text-align:start;text-anchor:start;fill:#ffffff;fill-opacity:1;stroke:none;stroke-width:1px;stroke-linecap:butt;stroke-linejoin:miter;stroke-opacity:1;font-family:MgOpen Modata;-inkscape-font-specification:MgOpen Modata Bold"
         xml:space="preserve"><tspan
           y="47"
           x="35"
           id="tspan4437"
           sodipodi:role="line">Happy birthday!</tspan></text>
    </g>
    <path
       style="fill:none;fill-rule:evenodd;stroke:none;stroke-width:1px;stroke-linecap:butt;stroke-linejoin:miter;stroke-opacity:1"
       d="M 150,-9.29234 C 150,-9.29234 200.62178,-67.519238 308.00962,-67.519238 C 415.39746,-67.519238 460.62178,-11 460.62178,-11"
       id="path4439"
       sodipodi:nodetypes="csc" />
    <text
       transform="translate(-10.681944,14)"
       xml:space="preserve"
       style="font-size:25px;font-style:normal;font-variant:normal;font-weight:bold;font-stretch:normal;text-align:start;text-anchor:start;fill:#000000;fill-opacity:1;stroke:none;stroke-width:1px;stroke-linecap:butt;stroke-linejoin:miter;stroke-opacity:1;filter:url(#filter4472);font-family:MgOpen Modata;-inkscape-font-specification:MgOpen Modata Bold;writing-mode:lr;line-height:125%"
       id="text4454"
       sodipodi:linespacing="125%"><textPath
         id="textPath4456"
         xlink:href="#path4439">Alles Gute zum Geburtstag!<tspan
   id="tspan4458"
   style="fill:#000000;fill-opacity:1;-inkscape-font-specification:MgOpen Modata Bold;font-family:MgOpen Modata;font-weight:bold;font-style:normal;font-stretch:normal;font-variant:normal;font-size:25px;text-anchor:start;text-align:start;writing-mode:lr;line-height:125%" /></textPath></text>
    <text
       id="text3800"
       style="font-size:25px;font-style:normal;font-variant:normal;font-weight:bold;font-stretch:normal;text-align:start;text-anchor:start;fill:#ffffff;fill-opacity:1;stroke:none;stroke-width:1px;stroke-linecap:butt;stroke-linejoin:miter;stroke-opacity:1;font-family:MgOpen Modata;-inkscape-font-specification:MgOpen Modata Bold;writing-mode:lr;line-height:125%"
       xml:space="preserve"
       transform="translate(-10.681944,14)"
       sodipodi:linespacing="125%"><textPath
         xlink:href="#path4439"
         id="textPath4451">Alles Gute zum Geburtstag!</textPath></text>
    <g
       id="g4973"
       clip-path="url(#clipPath5057)">
      <path
         transform="matrix(3.8134509,0,0,3.8134509,177.31629,-199.37245)"
         id="path3694"
         d="M 31.31275,37.78175 C 31.820058,39.650977 26.427064,44.812359 31.719,44.46925 C 31.683108,44.783885 31.829762,45.188117 32.1565,45.53175 C 32.107483,45.529787 32.04601,45.53175 32.00025,45.53175 C 31.574297,45.692266 30.704176,45.606685 30.2815,45.5005 C 30.320515,45.642128 30.348184,45.753856 30.4065,45.84425 C 30.356629,45.78876 30.32661,45.728634 30.2815,45.65675 C 29.182138,47.513525 31.074067,47.995025 31.00025,49.59425 C 31.203028,50.581965 31.524768,51.205797 31.62525,52.03175 C 30.614428,52.107054 29.593467,52.223563 28.594,52.34425 C 27.943725,50.83773 25.469109,48.882421 25.50025,47.688 C 25.108488,48.32768 23.669869,51.264172 24.00025,53.03175 C 23.145483,53.179473 22.297931,53.330941 21.4065,53.5005 C 20.034332,53.664331 18.891482,54.16979 17.75025,54.7505 C 17.749228,54.716999 17.751702,54.690982 17.75025,54.65675 C 17.289185,53.112271 19.055232,52.245047 17.5315,50.65675 C 17.500425,50.749646 17.449354,50.834301 17.4065,50.90675 C 17.448718,50.800663 17.496264,50.662815 17.50025,50.5005 C 17.113934,50.689489 16.267149,50.977161 15.81275,50.90675 C 15.75791,50.918119 15.684046,50.922934 15.62525,50.938 C 15.873827,50.520669 15.939614,50.086195 15.81275,49.78175 C 21.08911,49.053009 14.554055,45.115416 14.594,43.188 C 14.025841,44.126416 11.237939,50.02017 15.0315,49.8755 L 15.1565,51.063 C 14.846455,51.137936 14.546866,51.170664 14.31275,51.063 C 14.070509,51.113221 13.434042,51.217936 13.06275,51.28175 C 13.126219,51.306556 13.197479,51.351747 13.219,51.438 C 13.531881,51.373136 13.831161,51.535876 14.094,51.65675 C 14.150329,51.709965 14.23447,51.725948 14.31275,51.7505 C 13.745616,51.692724 13.286991,51.448041 12.81275,51.40675 C 11.221911,52.805289 13.20718,53.831753 13.2815,55.65675 C 13.355981,55.982026 13.429495,56.438822 13.50025,56.84425 C 12.410644,57.582632 11.43821,58.613799 10.969,59.59425 C 10.802111,61.093707 9.477183,64.909549 11.6565,65.03175 C 11.668141,67.184669 11.672518,68.188185 11.68775,70.96925 C 11.632555,70.970061 11.588377,70.966724 11.5315,70.96925 C 10.696597,71.143009 10.576327,71.714341 10.68775,72.40675 C 10.557774,73.567354 10.360699,74.750651 10.56275,75.59425 C 9.0771752,76.721502 8.219,77.962464 8.219,79.28175 C 8.219,84.209296 19.769848,88.188002 34.00025,88.188 C 48.230652,88.188 59.781502,84.209293 59.7815,79.28175 C 59.7815,77.68963 58.550049,76.201448 56.43775,74.90675 L 56.4065,72.53175 C 56.911146,71.409961 57.469332,69.741192 56.4065,69.53175 L 56.37525,65.40675 C 56.730249,64.936683 56.96727,64.175358 56.969,62.813 C 57.428532,60.495616 57.064151,58.3366 53.87525,56.46925 C 53.41161,56.247349 52.870291,56.089459 52.31275,55.90675 C 52.299207,55.666414 52.254303,55.363513 52.25025,55.15675 C 51.878704,53.362174 53.547986,51.948867 51.6565,50.90675 C 51.214716,51.039692 50.862428,51.35687 50.344,51.53175 C 50.397857,51.496089 50.46597,51.458422 50.50025,51.40675 C 50.727135,51.235751 50.960627,51.031751 51.2815,51.03175 C 51.2815,50.906692 51.380294,50.843329 51.469,50.813 C 51.103637,50.820063 50.38574,50.875498 50.12525,50.8755 C 49.924332,51.026926 49.631357,51.072982 49.31275,51.063 L 49.1565,49.8755 C 52.863094,49.237646 48.718964,44.049555 47.93775,43.2505 C 48.446099,45.12356 43.028337,50.30456 48.37525,49.938 C 48.327783,50.266284 48.456136,50.672377 48.81275,51.03175 C 48.753284,51.029057 48.680162,51.03175 48.62525,51.03175 C 48.199297,51.192266 47.329176,51.075438 46.9065,50.96925 C 46.949878,51.126718 46.995772,51.24934 47.06275,51.34425 C 47.008196,51.285446 46.955461,51.23477 46.9065,51.15675 C 45.962442,52.751224 47.229103,53.327187 47.56275,54.46925 C 47.129302,54.320857 46.715932,54.147172 46.2815,53.96925 C 45.183028,53.583316 44.106639,53.275045 43.0315,53.0005 C 44.117453,51.540583 39.818985,48.743447 39.81275,47.188 C 39.475936,47.775221 38.339104,50.288515 38.4065,52.063 C 37.995922,51.99875 37.578028,51.934572 37.1565,51.8755 C 36.682932,51.867436 36.242679,51.872966 35.7815,51.8755 C 35.701428,51.071543 35.637238,50.268398 35.62525,49.65675 C 35.253704,47.862174 36.922984,46.448868 35.0315,45.40675 C 34.592002,45.539004 34.233089,45.856134 33.719,46.03175 C 33.770089,45.996945 33.811075,45.956379 33.844,45.90675 C 34.070885,45.735751 34.335629,45.531748 34.6565,45.53175 C 34.6565,45.412335 34.728645,45.344905 34.81275,45.313 C 34.440541,45.323087 33.75474,45.406749 33.50025,45.40675 C 33.299332,45.558176 33.006357,45.572982 32.68775,45.563 L 32.50025,44.3755 C 36.260262,43.760879 32.0961,38.58299 31.31275,37.78175 z M 34.93775,45.28175 C 34.9265,45.282776 34.918621,45.311011 34.9065,45.313 C 35.125149,45.313 35.050249,45.27149 34.93775,45.28175 z M 30.969,46.15675 C 31.058784,46.169261 31.154143,46.188 31.25025,46.188 C 31.430687,46.188 31.619671,46.17988 31.81275,46.188 C 31.508189,46.213134 31.224496,46.219968 30.969,46.15675 z M 51.56275,50.78175 C 51.549172,50.782988 51.54628,50.810336 51.5315,50.813 C 51.75015,50.813 51.67525,50.77149 51.56275,50.78175 z M 12.87525,51.2505 C 12.763056,51.263238 12.724545,51.32595 12.93775,51.28175 C 12.914714,51.281283 12.895317,51.248222 12.87525,51.2505 z M 16.87525,51.34425 C 16.700492,51.412933 16.491693,51.439968 16.2815,51.46925 C 16.420711,51.43493 16.555442,51.40293 16.68775,51.3755 C 16.749757,51.362645 16.816797,51.361126 16.87525,51.34425 z M 47.594,51.65675 C 47.683694,51.669227 47.779249,51.65675 47.87525,51.65675 C 48.055867,51.65675 48.244475,51.679869 48.43775,51.688 C 48.138369,51.712368 47.845637,51.719013 47.594,51.65675 z"
         style="fill:#000000;fill-opacity:1;fill-rule:evenodd;stroke:none;stroke-width:0.55946569pt;stroke-opacity:1;filter:url(#filter3921)" />
      <path
         id="path850"
         d="M 401.46979,99.110507 C 401.46979,117.90147 357.42707,133.15211 303.16014,133.15211 C 248.8932,133.15211 204.85046,117.90147 204.85046,99.110507 C 204.85046,80.319542 248.8932,65.068908 303.16014,65.068908 C 357.42707,65.068908 401.46979,80.319542 401.46979,99.110507 z"
         style="fill:#006ca9;fill-opacity:1;fill-rule:evenodd;stroke:#004065;stroke-width:2.13349476pt;stroke-opacity:1" />
      <path
         sodipodi:nodetypes="cccccccc"
         id="path829"
         d="M 303.16011,0.14067158 C 256.08653,0.14067158 217.88188,13.800218 217.88188,30.630731 C 217.88188,31.411621 218.20613,90.064311 218.20613,90.447116 C 218.20613,107.27761 256.41078,120.93718 303.48436,120.93718 C 350.55794,120.93718 388.7626,107.27761 388.7626,90.447116 L 388.43833,31.794474 C 388.43833,31.794474 388.43833,31.028827 388.43833,30.630731 C 388.43833,13.800218 350.23369,0.14067158 303.16011,0.14067158 z"
         style="fill:#00325c;fill-opacity:1;fill-rule:evenodd;stroke:#000f1d;stroke-width:1.75161304pt;stroke-opacity:1" />
      <path
         sodipodi:nodetypes="ccccccccccccccccccc"
         id="path833"
         d="M 215.28786,24.036378 C 214.59125,30.295237 208.62611,47.233937 220.65905,44.585376 C 232.66917,45.530199 220.47216,65.218751 233.08377,65.991586 C 243.33175,66.769528 234.69561,50.484006 243.99686,55.421916 C 253.48053,57.324283 252.25906,66.679754 253.54781,73.006993 C 259.81334,78.019352 261.84779,69.23706 259.92771,65.182808 C 264.63196,58.359091 277.72933,61.262914 284.53264,63.807954 C 288.32312,70.718064 291.0068,84.97489 302.97415,81.109085 C 310.95039,78.688186 314.44245,64.134407 322.56242,62.837323 C 329.87117,62.909443 330.40423,80.543556 338.49917,72.55768 C 340.70609,66.046758 352.5145,54.314882 359.74484,62.146067 C 367.02861,68.843811 378.16415,63.812886 375.45669,52.311748 C 379.36113,45.505167 390.75101,55.08137 390.77479,36.35551 C 392.52719,27.518286 391.09235,19.328273 378.93164,12.207226 C 371.5732,8.685438 360.66097,7.0033641 349.96217,2.6216516 C 338.36196,-1.4539397 327.4742,-3.6475797 315.24252,-5.3617155 C 293.89971,-5.7251431 276.1438,-3.2063703 255.17761,0.78160504 C 245.27881,1.9634839 238.23416,8.1387812 229.207,11.177331 C 223.52124,13.791253 217.67361,19.051179 215.28786,24.036378 z"
         style="fill:#006ca9;fill-opacity:1;fill-rule:evenodd;stroke:#004065;stroke-width:1.98129559pt;stroke-opacity:1" />
      <path
         id="path835"
         d="M 220.47589,32.903393 C 220.47589,40.660203 228.18775,39.341893 232.79746,43.54381 C 237.30226,45.596955 240.34065,47.090615 245.76753,47.090615 C 253.46162,47.090615 244.78766,44.575052 242.52502,43.54381 C 237.18606,43.54381 228.90644,40.725711 228.90644,35.859065 C 225.70689,32.942559 225.17637,32.903393 220.47589,32.903393 z"
         style="fill:#ffffff;fill-opacity:0.8;fill-rule:evenodd;stroke:none;stroke-width:1pt;stroke-linecap:butt;stroke-linejoin:miter;stroke-opacity:1" />
      <path
         id="path836"
         d="M 265.22265,49.455153 C 267.24851,53.148455 276.97188,54.77536 285.32625,54.77536 C 289.75162,56.792297 308.67239,58.461174 308.67239,52.410825 C 308.67239,47.863467 296.70318,51.228557 294.40531,51.228557 C 290.32522,51.228557 273.62752,45.931748 271.05918,48.272884 C 268.56129,48.272884 267.97401,48.451967 265.22265,49.455153 z"
         style="fill:#ffffff;fill-opacity:0.8;fill-rule:evenodd;stroke:none;stroke-width:1pt;stroke-linecap:butt;stroke-linejoin:miter;stroke-opacity:1" />
      <path
         id="path837"
         d="M 322.29097,51.228557 C 327.00638,55.52683 342.88946,52.77641 350.17662,49.455153 C 353.05434,47.706391 363.7952,46.594414 363.7952,42.952675 C 366.32667,40.645157 354.45275,42.010504 352.77064,43.54381 C 344.61072,43.54381 333.01313,45.317213 323.58797,45.317213 C 319.64922,45.317213 321.61265,49.682798 322.29097,51.228557 z"
         style="fill:#ffffff;fill-opacity:0.8;fill-rule:evenodd;stroke:none;stroke-width:1pt;stroke-linecap:butt;stroke-linejoin:miter;stroke-opacity:1" />
      <path
         id="path838"
         d="M 376.5099,43.220112 C 378.67006,40.860804 383.71045,35.368302 385.94101,30.495948 C 385.94101,28.44966 389.07991,21.407258 385.38623,21.407258 C 382.25704,21.407258 378.72898,25.959861 378.72898,29.284122 C 377.26898,30.87872 378.6925,38.372811 375.40037,38.372811 C 375.40037,43.158102 371.72328,43.220112 376.5099,43.220112 z"
         style="fill:#ffffff;fill-opacity:0.8;fill-rule:evenodd;stroke:none;stroke-width:0.9364027pt" />
      <path
         id="path839"
         d="M 363.14669,10.440289 C 357.91304,10.440289 352.88122,7.8305858 346.9341,5.1200796 C 339.78803,3.4916039 332.68092,0.39100533 325.53348,0.39100533 C 325.53348,8.8872977 338.92176,14.092061 346.9341,10.440289 C 352.92834,10.440289 356.57848,13.433874 363.14669,10.440289 z"
         style="fill:#ffffff;fill-opacity:0.8;fill-rule:evenodd;stroke:none;stroke-width:1pt;stroke-linecap:butt;stroke-linejoin:miter;stroke-opacity:1" />
      <path
         id="path841"
         d="M 254.19808,8.6668855 C 251.31828,8.6668855 244.00946,12.213692 239.2825,12.213692 C 236.03206,12.213692 225.01542,14.687217 225.01542,17.533901 C 220.84332,21.336916 236.62478,15.169363 242.52502,15.169363 C 245.94293,15.169363 252.25257,15.329244 252.25257,12.213692 C 254.66126,12.213692 254.19808,10.585113 254.19808,8.6668855 z"
         style="fill:#ffffff;fill-opacity:0.8;fill-rule:evenodd;stroke:none;stroke-width:1pt;stroke-linecap:butt;stroke-linejoin:miter;stroke-opacity:1" />
      <path
         id="path842"
         d="M 233.44597,28.765453 C 237.34694,28.765453 245.56434,29.947721 251.60407,29.947721 C 254.67587,27.147668 262.62863,31.042891 262.62863,25.218647 C 262.62863,23.992696 248.88756,22.854109 247.06454,22.854109 C 244.55779,22.854109 237.88234,24.130406 233.44597,28.765453 z"
         style="fill:#ffffff;fill-opacity:0.8;fill-rule:evenodd;stroke:none;stroke-width:1pt;stroke-linecap:butt;stroke-linejoin:miter;stroke-opacity:1" />
      <path
         id="path847"
         d="M 367.03773,15.169363 C 364.26636,15.169363 345.44725,17.880014 343.69159,21.080706 C 343.69159,30.464533 356.86437,22.262975 363.14669,22.262975 C 366.81237,22.262975 367.63023,18.409923 367.03773,15.169363 z"
         style="fill:#ffffff;fill-opacity:0.8;fill-rule:evenodd;stroke:none;stroke-width:1pt;stroke-linecap:butt;stroke-linejoin:miter;stroke-opacity:1" />
      <path
         id="path848"
         d="M 367.03773,34.676795 C 362.84049,30.850878 355.46389,31.721124 349.52812,31.721124 C 345.10419,31.721124 341.56698,35.859065 347.5826,35.859065 C 352.72465,35.859065 356.7766,37.041332 362.49819,37.041332 C 365.17935,37.041332 363.4576,37.287519 367.03773,34.676795 z"
         style="fill:#ffffff;fill-opacity:0.8;fill-rule:evenodd;stroke:none;stroke-width:1pt;stroke-linecap:butt;stroke-linejoin:miter;stroke-opacity:1" />
      <g
         transform="matrix(2.0752116,0,0,1.8916304,110.85646,-64.249899)"
         id="g868"
         style="stroke:#004065;stroke-opacity:1">
        <path
           sodipodi:nodetypes="ccccccccc"
           id="path869"
           d="M 116.37367,29.656913 C 117.42503,31.49486 119.2027,30.519711 121.13173,30.663882 C 123.08924,30.829302 123.94552,29.5545 125.13887,29.160544 C 128.6147,31.261413 125.53568,34.117738 126.21844,37.735531 C 126.26559,40.374521 126.6944,44.609261 127.09768,47.409798 C 127.26167,49.70491 121.17006,49.881472 120.01122,48.859931 C 119.05396,48.275919 118.30976,46.408796 118.909,44.245653 C 119.07057,41.580958 118.23024,40.192608 117.73904,37.567818 C 117.87469,34.343844 114.35346,33.400097 116.37367,29.656913 z"
           style="fill:#0075ff;fill-rule:evenodd;stroke:#004065;stroke-width:0.71048145pt;stroke-linejoin:round;stroke-opacity:1" />
        <path
           sodipodi:nodetypes="ccccccccc"
           id="path870"
           d="M 116.36976,29.313863 C 117.14648,29.52793 118.7755,29.725333 119.55824,29.401739 C 120.43406,29.401739 121.6815,29.667347 122.32159,29.138111 C 122.82249,29.138111 124.23532,28.962359 124.87238,28.962359 C 125.67597,28.962359 124.44725,28.688447 124.44725,29.401739 C 123.85761,29.401739 123.37622,29.847898 122.95929,30.192624 C 122.59627,30.792926 121.54733,30.807757 120.83363,30.807757 C 120.00194,30.807757 119.02432,30.719881 118.17656,30.719881 C 117.3925,30.719881 116.68861,30.583657 116.36976,29.313863 z"
           style="fill:#0075ff;fill-opacity:1;fill-rule:evenodd;stroke:#004065;stroke-width:0.71048145pt;stroke-linejoin:round;stroke-opacity:1" />
        <path
           sodipodi:nodetypes="ccc"
           id="path871"
           d="M 118.28285,13.759789 C 119.77081,15.429436 127.95457,26.589703 119.77081,27.204836 C 108.7174,28.522978 119.2394,17.626339 118.28285,13.759789 z"
           style="fill:#ffa800;fill-rule:evenodd;stroke:#875a00;stroke-width:0.71048145pt;stroke-opacity:1" />
        <path
           sodipodi:nodetypes="ccc"
           id="path872"
           d="M 119.33474,18.318327 C 120.11204,19.360168 123.85577,26.499805 119.58062,26.88364 C 113.80638,27.706146 119.83443,20.731011 119.33474,18.318327 z"
           style="fill:#ffff00;fill-opacity:1;fill-rule:evenodd;stroke:none;stroke-width:1pt;stroke-linecap:butt;stroke-linejoin:miter;stroke-opacity:1" />
        <path
           sodipodi:nodetypes="ccc"
           id="path873"
           d="M 120.93991,30.2805 C 119.32455,29.308344 118.66786,27.613622 119.20631,26.698105 C 119.62285,25.699877 119.80142,23.445732 119.80142,22.040847"
           style="fill:none;fill-opacity:0.75;fill-rule:evenodd;stroke:#004065;stroke-width:0.71048145pt;stroke-opacity:1" />
      </g>
      <g
         transform="matrix(-2.0235347,0.419513,0.4602265,1.8445251,462.17552,-113.47535)"
         id="g874"
         style="stroke:#004065;stroke-opacity:1">
        <path
           sodipodi:nodetypes="ccccccccc"
           id="path875"
           d="M 116.37367,29.656913 C 117.42503,31.49486 119.2027,30.519711 121.13173,30.663882 C 123.08924,30.829302 123.94552,29.5545 125.13887,29.160544 C 128.6147,31.261413 125.53568,34.117738 126.21844,37.735531 C 126.26559,40.374521 126.6944,44.609261 127.09768,47.409798 C 127.26167,49.70491 121.17006,49.881472 120.01122,48.859931 C 119.05396,48.275919 118.30976,46.408796 118.909,44.245653 C 119.07057,41.580958 118.23024,40.192608 117.73904,37.567818 C 117.87469,34.343844 114.35346,33.400097 116.37367,29.656913 z"
           style="fill:#0075ff;fill-rule:evenodd;stroke:#004065;stroke-width:0.71048145pt;stroke-linejoin:round;stroke-opacity:1" />
        <path
           sodipodi:nodetypes="ccccccccc"
           id="path876"
           d="M 116.36976,29.313863 C 117.14648,29.52793 118.7755,29.725333 119.55824,29.401739 C 120.43406,29.401739 121.6815,29.667347 122.32159,29.138111 C 122.82249,29.138111 124.23532,28.962359 124.87238,28.962359 C 125.67597,28.962359 124.44725,28.688447 124.44725,29.401739 C 123.85761,29.401739 123.37622,29.847898 122.95929,30.192624 C 122.59627,30.792926 121.54733,30.807757 120.83363,30.807757 C 120.00194,30.807757 119.02432,30.719881 118.17656,30.719881 C 117.3925,30.719881 116.68861,30.583657 116.36976,29.313863 z"
           style="fill:#0075ff;fill-opacity:1;fill-rule:evenodd;stroke:#004065;stroke-width:0.71048145pt;stroke-linejoin:round;stroke-opacity:1" />
        <path
           sodipodi:nodetypes="ccc"
           id="path877"
           d="M 118.28285,13.759789 C 119.77081,15.429436 127.95457,26.589703 119.77081,27.204836 C 108.7174,28.522978 119.2394,17.626339 118.28285,13.759789 z"
           style="fill:#ffa800;fill-rule:evenodd;stroke:#875a00;stroke-width:0.71048145pt;stroke-opacity:1" />
        <path
           sodipodi:nodetypes="ccc"
           id="path878"
           d="M 119.33474,18.318327 C 120.11204,19.360168 123.85577,26.499805 119.58062,26.88364 C 113.80638,27.706146 119.83443,20.731011 119.33474,18.318327 z"
           style="fill:#ffff00;fill-opacity:1;fill-rule:evenodd;stroke:none;stroke-width:1pt;stroke-linecap:butt;stroke-linejoin:miter;stroke-opacity:1" />
        <path
           sodipodi:nodetypes="ccc"
           id="path879"
           d="M 120.93991,30.2805 C 119.32455,29.308344 118.66786,27.613622 119.20631,26.698105 C 119.62285,25.699877 119.80142,23.445732 119.80142,22.040847"
           style="fill:none;fill-opacity:0.75;fill-rule:evenodd;stroke:#004065;stroke-width:0.71048145pt;stroke-opacity:1" />
      </g>
      <path
         sodipodi:nodetypes="cccccc"
         id="path902"
         d="M 352.6262,-5.775313 C 349.92225,-1.8889019 355.58002,0.56477709 356.26247,4.0982786 C 357.77309,8.5379396 358.37342,14.837526 358.65509,19.460188 C 357.24346,22.621118 361.00472,30.178541 362.4726,24.688029 C 362.8258,17.963741 361.01995,8.2957481 359.83772,1.7176532 C 358.80494,-1.8006404 356.65554,-5.1841801 352.6262,-5.775313 z"
         style="fill:#ffffff;fill-opacity:0.3;fill-rule:evenodd;stroke:none;stroke-width:1pt;stroke-linecap:butt;stroke-linejoin:miter;stroke-opacity:1" />
      <path
         sodipodi:nodetypes="cccccc"
         id="path904"
         d="M 221.26194,-5.1417521 C 218.55799,-1.2553407 224.21576,1.1983393 224.89821,4.7318397 C 226.40883,9.1715008 227.00917,15.471087 227.29083,20.09375 C 225.87921,23.254679 229.64046,30.812104 231.10834,25.321591 C 231.46154,18.597302 229.65569,8.9293103 228.47346,2.3512144 C 227.44069,-1.1670782 225.29129,-4.5506182 221.26194,-5.1417521 z"
         style="fill:#ffffff;fill-opacity:0.3;fill-rule:evenodd;stroke:none;stroke-width:1pt;stroke-linecap:butt;stroke-linejoin:miter;stroke-opacity:1" />
      <path
         sodipodi:nodetypes="ccccc"
         id="path906"
         d="M 297.78162,79.803526 C 300.87065,82.320137 309.24993,75.875596 309.24993,74.418254 C 309.24993,72.333373 310.64003,71.440649 310.64003,69.349756 C 308.34457,67.257356 305.629,73.467909 302.9945,73.467909 C 301.38139,74.938305 296.94056,75.970252 297.78162,79.803526 z"
         style="fill:#ffffff;fill-opacity:0.8;fill-rule:evenodd;stroke:none;stroke-width:1pt;stroke-linecap:butt;stroke-linejoin:miter;stroke-opacity:1" />
      <path
         sodipodi:nodetypes="ccccc"
         id="path907"
         d="M 334.96674,73.784692 C 338.36194,72.02994 340.22992,67.674134 341.91724,64.598041 C 344.05167,62.652425 341.6013,63.014136 339.48457,63.014136 C 337.22347,65.075203 334.9834,64.899654 332.8816,66.81551 C 332.8816,69.429866 332.15772,72.760483 334.96674,73.784692 z"
         style="fill:#ffffff;fill-opacity:0.8;fill-rule:evenodd;stroke:none;stroke-width:1pt;stroke-linecap:butt;stroke-linejoin:miter;stroke-opacity:1" />
      <path
         sodipodi:nodetypes="ccccc"
         id="path909"
         d="M 366.24394,63.964479 C 368.23456,63.359643 372.49939,62.995235 372.49939,60.479889 C 374.11195,59.009994 374.23701,56.803908 374.23701,54.777831 C 372.4608,51.539646 369.05448,54.11663 366.939,56.044955 C 365.6505,58.393972 364.87396,63.340083 366.24394,63.964479 z"
         style="fill:#ffffff;fill-opacity:0.8;fill-rule:evenodd;stroke:none;stroke-width:1pt;stroke-linecap:butt;stroke-linejoin:miter;stroke-opacity:1" />
      <path
         sodipodi:nodetypes="ccccc"
         id="path929"
         d="M 383.62018,47.808648 C 386.4222,46.664102 387.31279,44.853701 387.95324,41.818594 C 388.7431,39.316272 389.14315,38.435379 386.66364,40.103437 C 384.18271,41.518519 381.2808,43.166033 381.461,46.051408 C 381.53008,47.315251 382.01409,48.352923 383.62018,47.808648 z"
         style="fill:#ffffff;fill-opacity:0.8;fill-rule:evenodd;stroke:none;stroke-width:1pt;stroke-linecap:butt;stroke-linejoin:miter;stroke-opacity:1" />
      <path
         sodipodi:nodetypes="ccc"
         id="path911"
         d="M 254.68858,73.467909 C 256.92295,74.067469 260.53831,72.147735 259.55393,67.765851 C 255.75167,67.765851 254.68858,70.287469 254.68858,73.467909 z"
         style="fill:#ffffff;fill-opacity:0.8;fill-rule:evenodd;stroke:none;stroke-width:1pt;stroke-linecap:butt;stroke-linejoin:miter;stroke-opacity:1" />
      <path
         sodipodi:nodetypes="ccccc"
         id="path912"
         d="M 230.36188,63.330917 C 232.79652,65.707677 235.00658,66.383068 237.31236,62.063794 C 237.31236,59.699788 237.739,58.26242 234.8797,58.26242 C 232.55229,58.26242 230.53676,59.527506 229.66682,61.113451 C 229.66682,62.09927 229.77823,62.000882 230.36188,63.330917 z"
         style="fill:#ffffff;fill-opacity:0.8;fill-rule:evenodd;stroke:none;stroke-width:1pt;stroke-linecap:butt;stroke-linejoin:miter;stroke-opacity:1" />
      <path
         sodipodi:nodetypes="ccc"
         id="path913"
         d="M 214.37575,40.522682 C 216.90537,43.373711 218.54603,46.183512 218.54603,40.205904 C 218.30587,37.135952 214.37575,37.251433 214.37575,40.522682 z"
         style="fill:#ffffff;fill-opacity:0.8;fill-rule:evenodd;stroke:none;stroke-width:1pt;stroke-linecap:butt;stroke-linejoin:miter;stroke-opacity:1" />
      <path
         sodipodi:nodetypes="cccccccccccccccccc"
         id="path937"
         d="M 217.50347,67.449064 C 228.30642,66.969261 230.99684,74.732368 240.94727,77.673407 C 251.48513,78.946736 262.71128,83.284875 272.223,85.211201 C 282.54915,87.173285 295.45941,88.430716 306.85745,87.870515 C 320.4335,86.278746 343.83981,82.761869 353.02549,79.283835 C 363.60062,75.786982 380.17445,67.549782 387.58203,61.876342 C 393.60061,61.745144 390.07868,70.772886 387.9363,75.071474 C 388.18212,80.720965 385.75778,85.472177 378.37262,83.571843 C 369.87226,81.492051 372.12567,96.406894 362.9662,91.183195 C 354.92442,86.422117 351.37576,94.633493 351.25874,100.52276 C 343.32802,103.74882 332.72604,110.25137 324.5367,104.15139 C 320.2871,96.996106 305.1098,93.065731 303.26225,103.7361 C 297.80411,111.41184 286.01957,109.21763 282.8218,101.4155 C 275.9618,97.867906 267.62248,99.490595 260.40698,96.974275 C 256.40762,101.12648 245.65685,104.79545 245.47725,96.233972 C 242.79787,87.688096 225.23984,79.328662 221.64147,89.503531 C 211.19285,90.619568 213.23719,81.575722 214.20302,72.951385 C 213.77811,70.310914 214.31961,68.111688 217.50347,67.449064 z"
         style="fill:#006ca9;fill-opacity:1;fill-rule:evenodd;stroke:#004065;stroke-width:1.98129559pt;stroke-opacity:1" />
      <path
         sodipodi:nodetypes="ccc"
         id="path938"
         d="M 215.30433,84.982042 C 217.21667,89.36776 219.44309,89.414588 224.866,84.982042 C 224.866,81.334723 218.1146,87.955862 215.30433,84.982042 z"
         style="fill:#ffffff;fill-opacity:0.8;fill-rule:evenodd;stroke:none;stroke-width:1pt;stroke-linecap:butt;stroke-linejoin:miter;stroke-opacity:1" />
      <path
         sodipodi:nodetypes="ccc"
         id="path939"
         d="M 246.66661,96.073573 C 249.6674,104.81138 256.63007,97.98592 258.52308,96.456049 C 259.28802,90.253361 250.44276,99.525479 246.66661,96.073573 z"
         style="fill:#ffffff;fill-opacity:0.8;fill-rule:evenodd;stroke:none;stroke-width:1pt;stroke-linecap:butt;stroke-linejoin:miter;stroke-opacity:1" />
      <path
         sodipodi:nodetypes="cccc"
         id="path940"
         d="M 287.20809,103.72291 C 292.56263,110.40987 301.35936,105.18626 301.35936,102.57551 C 301.35936,99.712882 301.87546,99.133307 298.29963,99.133307 C 297.53992,106.40018 288.12893,103.2625 287.20809,103.72291 z"
         style="fill:#ffffff;fill-opacity:0.8;fill-rule:evenodd;stroke:none;stroke-width:1pt;stroke-linecap:butt;stroke-linejoin:miter;stroke-opacity:1" />
      <path
         sodipodi:nodetypes="ccc"
         id="path941"
         d="M 328.51451,104.10539 C 333.11092,106.78265 347.1994,103.34047 342.66579,101.81058 C 341.15939,101.04565 328.40163,102.2253 328.51451,104.10539 z"
         style="fill:#ffffff;fill-opacity:0.8;fill-rule:evenodd;stroke:none;stroke-width:1pt;stroke-linecap:butt;stroke-linejoin:miter;stroke-opacity:1" />
      <path
         sodipodi:nodetypes="ccc"
         id="path942"
         d="M 348.40278,98.368386 C 351.06213,100.68109 354.31221,89.954106 352.22748,89.954106 C 347.78413,90.57277 344.84839,97.657494 348.40278,98.368386 z"
         style="fill:#ffffff;fill-opacity:0.8;fill-rule:evenodd;stroke:none;stroke-width:1pt;stroke-linecap:butt;stroke-linejoin:miter;stroke-opacity:1" />
      <path
         sodipodi:nodetypes="ccc"
         id="path943"
         d="M 367.14367,90.336582 C 370.07591,89.826614 372.96385,83.069707 370.96833,83.069707 C 368.66223,83.069707 366.68992,89.202188 367.14367,90.336582 z"
         style="fill:#ffffff;fill-opacity:0.8;fill-rule:evenodd;stroke:none;stroke-width:1pt;stroke-linecap:butt;stroke-linejoin:miter;stroke-opacity:1" />
      <path
         sodipodi:nodetypes="ccccc"
         id="path944"
         d="M 383.97221,81.157374 C 387.76384,81.190416 385.75677,76.185305 387.41439,76.185305 C 387.41439,74.375612 388.17935,71.40231 388.17935,68.535969 C 386.4805,66.837121 383.20727,70.2745 383.20727,71.97817 C 383.20727,74.584608 380.37208,81.14502 383.97221,81.157374 z"
         style="fill:#ffffff;fill-opacity:0.8;fill-rule:evenodd;stroke:none;stroke-width:1pt;stroke-linecap:butt;stroke-linejoin:miter;stroke-opacity:1" />
      <g
         transform="matrix(1.0354331,0,0,1.0354331,211.93447,11.446082)"
         id="g2837">
        <path
           style="fill:#ffffff;fill-opacity:0.8;fill-rule:evenodd;stroke:none;stroke-width:1pt"
           d="M 92.528342,-10.748498 C 90.688586,-11.291567 80.741476,-12.006641 74.720344,-11.174487 C 70.859935,-10.640955 67.065414,-9.5391027 63.048775,-8.9839817 C 56.951342,-8.1412816 56.481826,-4.6118136 62.992867,-5.5116735 C 69.437754,-6.4023917 75.761321,-5.5440537 82.470795,-6.4713389 C 85.792707,-4.240623 91.187843,-8.635353 92.528342,-10.748498 z"
           id="path840" />
        <g
           style="stroke:#004065;stroke-opacity:1"
           id="g862"
           transform="matrix(2.0041967,0,0,1.8268977,-158.87727,-93.321521)">
          <path
             style="fill:#0075ff;fill-rule:evenodd;stroke:#004065;stroke-width:0.71048145pt;stroke-linejoin:round;stroke-opacity:1"
             d="M 116.37367,29.656913 C 117.42503,31.49486 119.2027,30.519711 121.13173,30.663882 C 123.08924,30.829302 123.94552,29.5545 125.13887,29.160544 C 128.6147,31.261413 125.53568,34.117738 126.21844,37.735531 C 126.26559,40.374521 126.6944,44.609261 127.09768,47.409798 C 127.26167,49.70491 121.17006,49.881472 120.01122,48.859931 C 119.05396,48.275919 118.30976,46.408796 118.909,44.245653 C 119.07057,41.580958 118.23024,40.192608 117.73904,37.567818 C 117.87469,34.343844 114.35346,33.400097 116.37367,29.656913 z"
             id="path857"
             sodipodi:nodetypes="ccccccccc" />
          <path
             style="fill:#0075ff;fill-opacity:1;fill-rule:evenodd;stroke:#004065;stroke-width:0.71048145pt;stroke-linejoin:round;stroke-opacity:1"
             d="M 116.36976,29.313863 C 117.14648,29.52793 118.7755,29.725333 119.55824,29.401739 C 120.43406,29.401739 121.6815,29.667347 122.32159,29.138111 C 122.82249,29.138111 124.23532,28.962359 124.87238,28.962359 C 125.67597,28.962359 124.44725,28.688447 124.44725,29.401739 C 123.85761,29.401739 123.37622,29.847898 122.95929,30.192624 C 122.59627,30.792926 121.54733,30.807757 120.83363,30.807757 C 120.00194,30.807757 119.02432,30.719881 118.17656,30.719881 C 117.3925,30.719881 116.68861,30.583657 116.36976,29.313863 z"
             id="path858"
             sodipodi:nodetypes="ccccccccc" />
          <path
             style="fill:#ffa800;fill-rule:evenodd;stroke:#885900;stroke-width:0.71048145pt;stroke-opacity:0.9372549"
             d="M 118.28285,13.759789 C 119.77081,15.429436 127.95457,26.589703 119.77081,27.204836 C 108.7174,28.522978 119.2394,17.626339 118.28285,13.759789 z"
             id="path860"
             sodipodi:nodetypes="ccc" />
          <path
             style="fill:#ffff00;fill-opacity:1;fill-rule:evenodd;stroke:none;stroke-width:1pt;stroke-linecap:butt;stroke-linejoin:miter;stroke-opacity:1"
             d="M 119.33474,18.318327 C 120.11204,19.360168 123.85577,26.499805 119.58062,26.88364 C 113.80638,27.706146 119.83443,20.731011 119.33474,18.318327 z"
             id="path861"
             sodipodi:nodetypes="ccc" />
          <path
             style="fill:none;fill-opacity:0.75;fill-rule:evenodd;stroke:#004065;stroke-width:0.71048145pt;stroke-opacity:1"
             d="M 120.93991,30.2805 C 119.32455,29.308344 118.66786,27.613622 119.20631,26.698105 C 119.62285,25.699877 119.80142,23.445732 119.80142,22.040847"
             id="path859"
             sodipodi:nodetypes="ccc" />
        </g>
        <path
           style="fill:#ffffff;fill-opacity:0.3;fill-rule:evenodd;stroke:none;stroke-width:1pt;stroke-linecap:butt;stroke-linejoin:miter;stroke-opacity:1"
           d="M 75.189887,-36.165945 C 72.578468,-32.412529 78.042628,-30.042818 78.701725,-26.630233 C 80.160647,-22.3425 80.740444,-16.258489 81.01246,-11.794019 C 79.649151,-8.7412571 83.281685,-1.4424516 84.699337,-6.7450758 C 85.040462,-13.239257 83.296396,-22.576403 82.154629,-28.929393 C 81.157194,-32.327288 79.081346,-35.595041 75.189887,-36.165945 z"
           id="path901"
           sodipodi:nodetypes="cccccc" />
      </g>
      <g
         transform="matrix(0.9913159,-3.7022638e-3,-0.1703978,1.0067402,28.81939,-12.340197)"
         id="g4333">
        <path
           i:knockout="Off"
           d="M 315.98533,40.220652 C 312.72796,30.873659 295.11179,23.296305 276.6382,23.296305 C 258.17318,23.296305 245.84207,30.867424 249.08407,40.208725 L 249.08281,40.208182 L 253.64692,53.304817 L 253.64818,53.305359 C 254.39751,55.426324 258.39539,57.143373 262.58999,57.143373 C 262.60178,57.143373 262.61338,57.142831 262.6257,57.142831 L 262.62803,57.143373 L 288.44659,57.143373 L 288.44659,57.143373 C 306.9135,57.139578 319.24177,49.564934 315.98533,40.220652 z"
           id="path2680"
           style="opacity:0.77333332;fill:#072b61;stroke:#00223f;stroke-width:3.11039734;stroke-miterlimit:4;stroke-dasharray:none;stroke-opacity:1" />
        <g
           style="opacity:0.77333332;stroke:none;stroke-width:8.16152859;stroke-miterlimit:4;stroke-dasharray:none;stroke-opacity:1"
           id="g2682"
           transform="matrix(0.5357769,0,9.4471543e-2,0.2710845,-85.125345,23.296305)">
          <path
             i:knockout="Off"
             d="M 693.543,14.799 C 677.36,14.799 664.242,27.917 664.242,44.1 C 664.242,44.106 664.242,44.113 664.242,44.121 L 664.242,59.63 L 648.782,59.63 C 648.779,59.63 648.779,59.63 648.777,59.63 C 632.593,59.63 619.476,72.684 619.476,88.865 C 619.476,105.048 632.593,118.167 648.777,118.167 C 664.959,118.167 678.078,105.047 678.078,88.865 C 678.078,88.86 678.078,88.852 678.078,88.846 L 678.078,73.271 L 693.537,73.271 C 693.54,73.271 693.542,73.271 693.543,73.271 C 709.725,73.271 722.844,60.283 722.844,44.1 C 722.844,27.917 709.725,14.799 693.543,14.799 z M 664.243,88.891 C 664.229,97.42 657.309,104.332 648.778,104.332 C 640.237,104.332 633.249,97.407 633.249,88.866 C 633.249,80.324 640.237,73.27 648.778,73.27 C 648.786,73.27 648.793,73.272 648.799,73.272 L 662.05,73.272 C 662.054,73.272 662.057,73.27 662.06,73.27 C 663.266,73.27 664.245,74.246 664.245,75.452 C 664.245,75.453 664.244,75.455 664.244,75.457 L 664.244,88.891 L 664.243,88.891 z M 693.542,59.629 C 693.537,59.629 693.532,59.629 693.527,59.629 L 680.267,59.629 C 680.265,59.629 680.261,59.629 680.261,59.629 C 679.053,59.629 678.077,58.651 678.077,57.445 L 678.077,57.443 L 678.077,44.074 C 678.092,35.542 685.01,28.633 693.541,28.633 C 702.083,28.633 709.072,35.557 709.072,44.1 C 709.074,52.641 702.084,59.629 693.542,59.629 z"
             id="path2684"
             style="fill:#0a57a4;stroke:none;stroke-width:8.16152859;stroke-miterlimit:4;stroke-dasharray:none;stroke-opacity:1" />
        </g>
        <path
           i:knockout="Off"
           d="M 276.39397,39.460803 L 274.92881,35.256553 C 274.92806,35.254384 274.92739,35.252487 274.92683,35.25086 C 273.39799,30.8639 279.18704,27.307813 287.85752,27.307813 C 289.17338,27.307813 290.13376,27.382361 291.40842,27.543928 C 293.26545,27.779229 294.97229,28.515224 295.27145,29.372122 C 295.63287,30.407664 294.40951,31.160466 292.18925,31.160466 C 291.13109,31.160466 290.71337,31.057996 289.1639,31.057996 C 284.59319,31.057996 281.53939,32.930919 282.33738,35.243812 L 283.60037,38.86794 L 283.60056,38.868482 C 283.71449,39.195411 284.3298,39.460531 284.97702,39.460531 C 284.97702,39.460531 284.97917,39.460531 284.98024,39.460531 L 290.42105,39.460531 C 292.44897,39.460531 294.37183,40.281375 294.73186,41.309869 C 295.09057,42.339178 293.73712,43.158395 291.70974,43.158395 L 285.09557,43.158395 L 286.56697,47.380536 C 286.56753,47.382162 286.56829,47.384331 286.56895,47.386229 C 288.09759,51.772647 282.30811,55.329005 273.63817,55.329005 C 272.32283,55.329005 271.36174,55.253914 270.0878,55.09289 C 268.23086,54.85786 266.5233,54.121323 266.22423,53.264696 C 265.86335,52.229154 267.08608,51.476081 269.30688,51.476081 C 270.36397,51.476081 270.78285,51.578821 272.33125,51.578821 C 276.90196,51.578821 279.95674,49.705628 279.15884,47.393006 C 279.15884,47.393006 277.88933,43.750172 277.88933,43.750172 C 277.77559,43.423787 277.15886,43.159208 276.51271,43.159208 C 276.51164,43.159208 276.5111,43.159208 276.50949,43.159208 L 271.06903,43.158666 C 269.04111,43.158666 267.11687,42.339991 266.75835,41.311226 C 266.39649,40.275954 267.76903,39.460803 269.81892,39.460803 L 276.39397,39.460803 L 276.39397,39.460803 z"
           id="path2686"
           style="opacity:0.77333332;fill:#ffffff;stroke:none;stroke-width:3;stroke-miterlimit:4;stroke-dasharray:none;stroke-opacity:1" />
        <path
           style="fill:none;fill-rule:evenodd;stroke:#ffffff;stroke-width:3.11039734;stroke-linecap:round;stroke-linejoin:round;stroke-miterlimit:4;stroke-dasharray:none;stroke-opacity:1"
           d="M 271.87589,54.71442 C 271.87589,54.71442 263.4704,52.760194 270.92255,52.139915 C 273.68346,51.910111 276.42068,52.483542 279.51338,50.421742 C 282.60608,48.359943 279.16975,43.549081 279.16975,43.549081 C 279.16975,43.549081 275.04615,34.270983 276.76432,31.865547 C 278.48248,29.460111 283.63698,28.429212 283.63698,28.429212 L 283.63698,28.429212 L 283.63698,28.429212 C 283.63698,28.429212 287.60576,27.781793 290.72155,28.148357 C 293.83734,28.514921 293.83734,28.514921 293.83734,28.514921"
           id="path3617"
           sodipodi:nodetypes="csscscccsc" />
        <path
           style="fill:none;fill-rule:evenodd;stroke:#ffffff;stroke-width:2.21321774;stroke-linecap:round;stroke-linejoin:miter;stroke-miterlimit:4;stroke-dasharray:none;stroke-opacity:1"
           d="M 269.96028,40.250162 L 290.23464,39.219263"
           id="path3619"
           sodipodi:nodetypes="cc" />
        <path
           style="fill:none;fill-rule:evenodd;stroke:#005aae;stroke-width:3.11039734;stroke-linecap:round;stroke-linejoin:round;stroke-miterlimit:4;stroke-dasharray:none;stroke-opacity:1"
           d="M 265.49305,39.906536 C 265.49305,39.906536 251.06045,42.311972 255.87131,47.810097 C 260.68218,53.308232 263.43125,53.308232 263.43125,53.308232"
           id="path3621" />
        <path
           style="fill:none;fill-rule:evenodd;stroke:#0059ac;stroke-width:3.11039734;stroke-linecap:round;stroke-linejoin:round;stroke-miterlimit:4;stroke-dasharray:none;stroke-opacity:1"
           d="M 295.04551,38.188363 C 295.04551,38.188363 304.00585,36.671204 298.88054,31.545892"
           id="path3623"
           sodipodi:nodetypes="cs" />
        <path
           sodipodi:nodetypes="cs"
           id="path3625"
           d="M 299.70073,40.897444 C 299.70073,40.897444 309.74419,39.196896 303.99933,33.452047"
           style="fill:none;fill-rule:evenodd;stroke:#005fd0;stroke-width:3.48637509;stroke-linecap:round;stroke-linejoin:round;stroke-miterlimit:4;stroke-dasharray:none;stroke-opacity:1" />
        <path
           style="fill:none;fill-rule:evenodd;stroke:#ffffff;stroke-width:3.11039734;stroke-linecap:round;stroke-linejoin:round;stroke-miterlimit:4;stroke-dasharray:none;stroke-opacity:1"
           d="M 289.5486,28.032595 C 289.5486,28.032595 297.88788,32.051777 290.62554,32.051777 C 283.3632,32.051777 281.64504,31.46893 281.3014,33.187093 C 280.95777,34.905256 283.52372,38.204331 283.52372,38.204331"
           id="path3628"
           sodipodi:nodetypes="cssc" />
        <path
           style="fill:none;fill-rule:evenodd;stroke:#ffffff;stroke-width:3.11039734;stroke-linecap:round;stroke-linejoin:round;stroke-miterlimit:4;stroke-dasharray:none;stroke-opacity:1"
           d="M 285.42378,44.717398 C 285.42378,44.717398 287.74374,53.099411 280.22654,53.719271 C 272.70935,54.339132 272.70935,54.339132 272.70935,54.339132"
           id="path3630" />
        <path
           style="fill:none;fill-rule:evenodd;stroke:#004382;stroke-width:3.11039734;stroke-linecap:round;stroke-linejoin:round;stroke-miterlimit:4;stroke-dasharray:none;stroke-opacity:1"
           d="M 287.16628,23.244376 C 287.16628,23.244376 311.14034,25.636987 314.86684,39.544465"
           id="path3632"
           sodipodi:nodetypes="cs" />
      </g>
      <g
         transform="matrix(-2.0126467,0.4609844,0.5057224,1.8345983,571.91198,-101.93428)"
         id="g886"
         style="stroke:#004065;stroke-opacity:1">
        <path
           sodipodi:nodetypes="ccccccccc"
           id="path887"
           d="M 116.37367,29.656913 C 117.42503,31.49486 119.2027,30.519711 121.13173,30.663882 C 123.08924,30.829302 123.94552,29.5545 125.13887,29.160544 C 128.6147,31.261413 125.53568,34.117738 126.21844,37.735531 C 126.26559,40.374521 126.6944,44.609261 127.09768,47.409798 C 127.26167,49.70491 121.17006,49.881472 120.01122,48.859931 C 119.05396,48.275919 118.30976,46.408796 118.909,44.245653 C 119.07057,41.580958 118.23024,40.192608 117.73904,37.567818 C 117.87469,34.343844 114.35346,33.400097 116.37367,29.656913 z"
           style="fill:#0075ff;fill-rule:evenodd;stroke:#004065;stroke-width:0.71048145pt;stroke-linejoin:round;stroke-opacity:1" />
        <path
           sodipodi:nodetypes="ccccccccc"
           id="path888"
           d="M 116.36976,29.313863 C 117.14648,29.52793 118.7755,29.725333 119.55824,29.401739 C 120.43406,29.401739 121.6815,29.667347 122.32159,29.138111 C 122.82249,29.138111 124.23532,28.962359 124.87238,28.962359 C 125.67597,28.962359 124.44725,28.688447 124.44725,29.401739 C 123.85761,29.401739 123.37622,29.847898 122.95929,30.192624 C 122.59627,30.792926 121.54733,30.807757 120.83363,30.807757 C 120.00194,30.807757 119.02432,30.719881 118.17656,30.719881 C 117.3925,30.719881 116.68861,30.583657 116.36976,29.313863 z"
           style="fill:#0075ff;fill-opacity:1;fill-rule:evenodd;stroke:#004065;stroke-width:0.71048145pt;stroke-linejoin:round;stroke-opacity:1" />
        <path
           sodipodi:nodetypes="ccc"
           id="path889"
           d="M 118.28285,13.759789 C 119.77081,15.429436 127.95457,26.589703 119.77081,27.204836 C 108.7174,28.522978 119.2394,17.626339 118.28285,13.759789 z"
           style="fill:#ffa800;fill-rule:evenodd;stroke:#875a00;stroke-width:0.71048145pt;stroke-opacity:1" />
        <path
           sodipodi:nodetypes="ccc"
           id="path890"
           d="M 119.33474,18.318327 C 120.11204,19.360168 123.85577,26.499805 119.58062,26.88364 C 113.80638,27.706146 119.83443,20.731011 119.33474,18.318327 z"
           style="fill:#ffff00;fill-opacity:1;fill-rule:evenodd;stroke:none;stroke-width:1pt;stroke-linecap:butt;stroke-linejoin:miter;stroke-opacity:1" />
        <path
           sodipodi:nodetypes="ccc"
           id="path891"
           d="M 120.93991,30.2805 C 119.32455,29.308344 118.66786,27.613622 119.20631,26.698105 C 119.62285,25.699877 119.80142,23.445732 119.80142,22.040847"
           style="fill:none;fill-opacity:0.75;fill-rule:evenodd;stroke:#004065;stroke-width:0.71048145pt;stroke-opacity:1" />
      </g>
      <g
         transform="matrix(1.0354331,0,0,1.0354331,200.6182,12.702019)"
         id="g2826">
        <path
           style="fill:#ffffff;fill-opacity:0.8;fill-rule:evenodd;stroke:none;stroke-width:1pt;stroke-linecap:butt;stroke-linejoin:miter;stroke-opacity:1"
           d="M 44.575201,29.286609 C 49.347466,24.936519 53.155681,21.465193 57.727742,17.297597 C 60.16758,15.073597 66.828775,17.716881 60.232988,20.723029 C 60.232988,24.221889 57.014429,27.002988 53.343561,27.002988 C 50.269538,29.80507 49.24308,29.286609 44.575201,29.286609 z"
           id="path843" />
        <path
           style="fill:#ffffff;fill-opacity:0.8;fill-rule:evenodd;stroke:none;stroke-width:1pt;stroke-linecap:butt;stroke-linejoin:miter;stroke-opacity:1"
           d="M 51.464626,-0.40046841 C 51.464626,2.8821931 66.496103,3.855478 66.496103,7.0213008 C 71.131168,7.0213008 68.923922,0.74134191 64.617168,0.74134191 C 59.139458,0.74134191 56.825424,-1.3777799 51.464626,-0.40046841 z"
           id="path844" />
        <g
           style="stroke:#004065;stroke-opacity:1"
           id="g880"
           transform="matrix(-1.9564303,0.3964737,0.4349513,1.7833573,282.17779,-103.13786)">
          <path
             style="fill:#0075ff;fill-rule:evenodd;stroke:#004065;stroke-width:0.71048145pt;stroke-linejoin:round;stroke-opacity:1"
             d="M 116.37367,29.656913 C 117.42503,31.49486 119.2027,30.519711 121.13173,30.663882 C 123.08924,30.829302 123.94552,29.5545 125.13887,29.160544 C 128.6147,31.261413 125.53568,34.117738 126.21844,37.735531 C 126.26559,40.374521 126.6944,44.609261 127.09768,47.409798 C 127.26167,49.70491 121.17006,49.881472 120.01122,48.859931 C 119.05396,48.275919 118.30976,46.408796 118.909,44.245653 C 119.07057,41.580958 118.23024,40.192608 117.73904,37.567818 C 117.87469,34.343844 114.35346,33.400097 116.37367,29.656913 z"
             id="path881"
             sodipodi:nodetypes="ccccccccc" />
          <path
             style="fill:#0075ff;fill-opacity:1;fill-rule:evenodd;stroke:#004065;stroke-width:0.71048145pt;stroke-linejoin:round;stroke-opacity:1"
             d="M 116.36976,29.313863 C 117.14648,29.52793 118.7755,29.725333 119.55824,29.401739 C 120.43406,29.401739 121.6815,29.667347 122.32159,29.138111 C 122.82249,29.138111 124.23532,28.962359 124.87238,28.962359 C 125.67597,28.962359 124.44725,28.688447 124.44725,29.401739 C 123.85761,29.401739 123.37622,29.847898 122.95929,30.192624 C 122.59627,30.792926 121.54733,30.807757 120.83363,30.807757 C 120.00194,30.807757 119.02432,30.719881 118.17656,30.719881 C 117.3925,30.719881 116.68861,30.583657 116.36976,29.313863 z"
             id="path882"
             sodipodi:nodetypes="ccccccccc" />
          <path
             style="fill:#ffa800;fill-rule:evenodd;stroke:#875a00;stroke-width:0.71048145pt;stroke-opacity:1"
             d="M 118.28285,13.759789 C 119.77081,15.429436 127.95457,26.589703 119.77081,27.204836 C 108.7174,28.522978 119.2394,17.626339 118.28285,13.759789 z"
             id="path883"
             sodipodi:nodetypes="ccc" />
          <path
             style="fill:#ffff00;fill-opacity:1;fill-rule:evenodd;stroke:none;stroke-width:1pt;stroke-linecap:butt;stroke-linejoin:miter;stroke-opacity:1"
             d="M 119.33474,18.318327 C 120.11204,19.360168 123.85577,26.499805 119.58062,26.88364 C 113.80638,27.706146 119.83443,20.731011 119.33474,18.318327 z"
             id="path884"
             sodipodi:nodetypes="ccc" />
          <path
             style="fill:none;fill-opacity:0.75;fill-rule:evenodd;stroke:#004065;stroke-width:0.71048145pt;stroke-opacity:1"
             d="M 120.93991,30.2805 C 119.32455,29.308344 118.66786,27.613622 119.20631,26.698105 C 119.62285,25.699877 119.80142,23.445732 119.80142,22.040847"
             id="path885"
             sodipodi:nodetypes="ccc" />
        </g>
        <path
           style="fill:#ffffff;fill-opacity:0.3;fill-rule:evenodd;stroke:none;stroke-width:1pt;stroke-linecap:butt;stroke-linejoin:miter;stroke-opacity:1"
           d="M 49.619753,1.1124859 C 47.008336,4.8659017 52.472496,7.2356136 53.131591,10.648198 C 54.590515,14.935931 55.17031,21.019942 55.442326,25.484412 C 54.079017,28.537174 57.711551,35.835979 59.129204,30.533355 C 59.470328,24.039174 57.726262,14.702028 56.584496,8.3490382 C 55.587061,4.9511431 53.511212,1.6833903 49.619753,1.1124859 z"
           id="path905"
           sodipodi:nodetypes="cccccc" />
      </g>
    </g>
    <g
       transform="matrix(0.9954081,9.5721549e-2,-9.5721549e-2,0.9954081,-531.46467,160.39027)"
       id="g4805">
      <text
         xml:space="preserve"
         style="font-size:20.35909189px;font-style:normal;font-variant:normal;font-weight:normal;font-stretch:normal;line-height:125%;fill:#000000;fill-opacity:1;stroke:#a76e00;stroke-width:3;stroke-linecap:butt;stroke-linejoin:miter;stroke-miterlimit:4;stroke-dasharray:none;stroke-opacity:1;filter:url(#filter4801);font-family:Sans;-inkscape-font-specification:Sans;text-anchor:start;text-align:start;writing-mode:lr"
         x="723.95038"
         y="-809.5235"
         id="text4769"
         sodipodi:linespacing="100%"
         transform="matrix(0.8660254,0.5,-0.5,0.8660254,0,0)"><tspan
           sodipodi:role="line"
           id="tspan2551"
           style="-inkscape-font-specification:MgOpen Modata;font-family:MgOpen Modata;font-weight:normal;font-style:normal;font-stretch:normal;font-variant:normal;font-size:20.3590889px;text-anchor:start;text-align:start;writing-mode:lr;line-height:100%">5 JAHRE!</tspan></text>
      <text
         transform="matrix(0.8660254,0.5,-0.5,0.8660254,0,0)"
         sodipodi:linespacing="125%"
         id="text4773"
         y="-809.5235"
         x="723.95026"
         style="font-size:20.35909271px;font-style:normal;font-variant:normal;font-weight:normal;font-stretch:normal;text-align:start;line-height:125%;writing-mode:lr-tb;text-anchor:start;fill:#ffffff;fill-opacity:1;stroke:none;stroke-width:1px;stroke-linecap:butt;stroke-linejoin:miter;stroke-opacity:1;font-family:MgOpen Modata;-inkscape-font-specification:MgOpen Modata"
         xml:space="preserve"><tspan
           sodipodi:role="line"
           id="tspan2553"
           x="723.95026"
           y="-809.5235">5 JAHRE!</tspan></text>
    </g>
    <text
       xml:space="preserve"
       style="font-size:15.43621063px;font-style:normal;font-variant:normal;font-weight:normal;font-stretch:normal;text-align:start;line-height:125%;writing-mode:lr-tb;text-anchor:start;fill:#ffffff;fill-opacity:1;stroke:none;stroke-width:1px;stroke-linecap:butt;stroke-linejoin:miter;stroke-opacity:1;font-family:MgOpen Modata;-inkscape-font-specification:MgOpen Modata"
       x="70.208527"
       y="179.03679"
       id="text4849"
       sodipodi:linespacing="125%"><tspan
         sodipodi:role="line"
         id="tspan4851"
         x="70.208527"
         y="179.03679">Thank you, Fedora community, for five great years!</tspan></text>
    <path
       style="fill:url(#linearGradient4881);fill-opacity:1;fill-rule:evenodd;stroke:#573900;stroke-width:1px;stroke-linecap:butt;stroke-linejoin:miter;stroke-opacity:1"
       d="M 450,63 C 450,63 481,65 487,57 C 493,49 483,73 483,73 L 498,84 C 498,84 474,81 467,81 C 460,81 449,76 449,76 L 450,63 z"
       id="path4869" />
    <path
       id="path4871"
       d="M 157,63 C 157,63 126,65 120,57 C 114,49 124,73 124,73 L 109,84 C 109,84 133,81 140,81 C 147,81 158,76 158,76 L 157,63 z"
       style="fill:url(#linearGradient4883);fill-opacity:1;fill-rule:evenodd;stroke:#573900;stroke-width:1px;stroke-linecap:butt;stroke-linejoin:miter;stroke-opacity:1" />
    <path
       style="fill:url(#radialGradient4879);fill-opacity:1;fill-rule:evenodd;stroke:#573900;stroke-width:1px;stroke-linecap:butt;stroke-linejoin:miter;stroke-opacity:1"
       d="M 152.64062,54 C 151.64062,54 141.64062,71 142.64062,78 C 175.60356,97.38997 293.39073,98.09664 300.35937,98 C 300.35937,98 301.42393,97.99699 301.64062,98 C 308.57044,98.09621 426.39029,99.39358 459.35937,80 C 460.35938,73 454.35937,56 453.35937,56 C 453.35938,56 374.29369,69.81802 301.64062,67.03125 C 301.64106,67.01975 301.64018,67.01151 301.64062,67 C 301.43311,67.00853 301.22324,67.023 301.01562,67.03125 C 300.79763,67.0226 300.57724,67.00895 300.35937,67 C 300.35981,67.01151 300.35893,67.01975 300.35937,67.03125 C 227.7063,69.81802 152.64062,54 152.64062,54 z"
       id="path4855"
       sodipodi:nodetypes="cccscscssscc" />
    <text
       sodipodi:linespacing="100%"
       id="text4860"
       style="font-size:15px;font-style:normal;font-variant:normal;font-weight:normal;font-stretch:normal;text-align:start;line-height:100%;writing-mode:lr-tb;text-anchor:start;fill:#00325c;fill-opacity:1;stroke:none;stroke-width:1px;stroke-linecap:butt;stroke-linejoin:miter;stroke-opacity:1;font-family:MgOpen Modata;-inkscape-font-specification:MgOpen Modata"
       xml:space="preserve"
       transform="translate(0,-2)"><textPath
         xlink:href="#path4864"
         id="textPath4866"
         style="font-size:11px;font-style:normal;font-variant:normal;font-weight:normal;font-stretch:normal;text-align:start;line-height:100%;letter-spacing:-0.078125;writing-mode:lr-tb;text-anchor:start;fill:#00325c;fill-opacity:1;font-family:MgOpen Modata;-inkscape-font-specification:MgOpen Modata">Danke an die Fedora-Community fr 5 tolle Jahre und weiter gehts!</textPath></text>
    <path
       id="path4864"
       d="M 152.64062,72 C 185.60356,91.38997 299.39073,90.09664 306.35937,90 C 306.35937,90 307.42393,89.99699 307.64062,90 C 314.57044,90.09621 428.39029,91.39358 461.35937,72"
       style="fill:none;fill-opacity:1;fill-rule:evenodd;stroke:none;stroke-width:1px;stroke-linecap:butt;stroke-linejoin:miter;stroke-opacity:1"
       sodipodi:nodetypes="ccsc" />
  </g>
</svg>
